<svg xmlns="http://www.w3.org/2000/svg" viewBox="0 0 3000 4171"><defs><style>.cls-1{fill:#cdebb0;}.cls-1,.cls-2,.cls-6,.cls-7{fill-rule:evenodd;}.cls-2{fill:#e2cbde;}.cls-10,.cls-12,.cls-13,.cls-14,.cls-15,.cls-16,.cls-17,.cls-18,.cls-19,.cls-20,.cls-21,.cls-22,.cls-23,.cls-24,.cls-25,.cls-26,.cls-27,.cls-28,.cls-3,.cls-30,.cls-31,.cls-32,.cls-33,.cls-34,.cls-4,.cls-5,.cls-8,.cls-9{fill:none;}.cls-14,.cls-15,.cls-18,.cls-26,.cls-28,.cls-3,.cls-32,.cls-33,.cls-9{stroke:#fff;}.cls-18,.cls-3{stroke-width:3.5px;}.cls-35,.cls-4,.cls-5{stroke:#29abe2;stroke-width:7px;}.cls-10,.cls-12,.cls-13,.cls-14,.cls-15,.cls-16,.cls-17,.cls-18,.cls-19,.cls-20,.cls-21,.cls-22,.cls-23,.cls-24,.cls-35,.cls-4,.cls-5,.cls-9{stroke-linecap:round;}.cls-10,.cls-12,.cls-13,.cls-14,.cls-15,.cls-16,.cls-17,.cls-18,.cls-19,.cls-20,.cls-21,.cls-22,.cls-23,.cls-24,.cls-25,.cls-26,.cls-27,.cls-28,.cls-30,.cls-31,.cls-32,.cls-33,.cls-35,.cls-5,.cls-9{stroke-linejoin:round;}.cls-35,.cls-6{fill:#29abe2;}.cls-7{fill:#b8b8b8;}.cls-8{stroke:gray;stroke-width:4.9px;stroke-dasharray:4 2;}.cls-15,.cls-32,.cls-9{stroke-width:2.9px;}.cls-10,.cls-16{stroke:blue;}.cls-10,.cls-14,.cls-16{stroke-width:0.9px;}.cls-10,.cls-13{stroke-dasharray:1 3 2 4;}.cls-11{fill:#bbb;}.cls-12{stroke:#bbb;}.cls-12,.cls-20,.cls-25{stroke-width:2px;}.cls-13,.cls-17{stroke:salmon;}.cls-15,.cls-18{opacity:0.4;}.cls-16,.cls-17{stroke-dasharray:2 3.5;}.cls-19{stroke:#960;stroke-width:1.5px;stroke-dasharray:5 4 2 4;opacity:0.8;}.cls-20{stroke:#eaeaea;stroke-dasharray:0.1 4;}.cls-21{stroke:#ededed;}.cls-21,.cls-22{stroke-width:6px;}.cls-22,.cls-23,.cls-30,.cls-31,.cls-34{stroke:#000;}.cls-23,.cls-34{stroke-width:12px;}.cls-24{stroke:#c50037;stroke-width:14px;}.cls-25{stroke:#aaa;}.cls-26,.cls-28{stroke-dashoffset:9px;stroke-dasharray:8 9;}.cls-26{stroke-width:0.8px;}.cls-27{stroke:#707070;stroke-width:3px;}.cls-29{fill:#fff;}.cls-30{stroke-width:3.9px;}.cls-31{stroke-width:6.5px;}.cls-33{stroke-width:5px;}.cls-34{stroke-miterlimit:10;}</style></defs><g id="MAIN"><polygon class="cls-1" points="1703.69 1581.56 1723.83 1627.41 1726.38 1624.81 1728.73 1621.14 1729.72 1617.51 1729.68 1613.45 1728.07 1608.54 1717.56 1585.81 1713.74 1582.59 1710.67 1581.7 1706.75 1580.89 1703.69 1581.56"/><polygon class="cls-2" points="1558.23 1350.86 1558.37 1382.22 1564.85 1382.2 1564.82 1376.32 1571.3 1376.29 1571.19 1350.82 1558.23 1350.86"/><polygon class="cls-1" points="1697.74 1587.17 1697.93 1591.1 1712.13 1624.3 1713.74 1626.42 1715.77 1627.97 1717.84 1628.48 1719.3 1628.63 1720.38 1628.45 1700.25 1583.26 1698.54 1585.57 1697.74 1587.17"/><polyline class="cls-3" points="1403.68 -665.22 1399.53 -649.71 1397.68 -644.13 1394.82 -635.43 1378.66 -619.82 1340.66 -594.5 1335.59 -591.16 1327.07 -585.47 1322.43 -582.37 1298.66 -509.88 1299.34 -505.45 1300.25 -499.59 1305.78 -463.36 1348.13 -387.08 1401.48 -334.45 1473.39 -208.58 1474.02 -168.83 1423.47 -2.73 1420.22 33.03 1437.57 99.59 1462.73 134.2 1493.14 176.1 1519.78 241.49 1532.11 309.4 1533.07 314.63 1542.18 321.33 1555.26 330.91 1582.46 364.54 1599.27 387.34 1620.25 398.31 1638.61 407.91 1662.14 424.24 1648.58 472.43 1648.03 474.32 1650.86 477.06 1681.87 506.75 1700.82 557.42 1703.92 834.45 1698.03 868.79"/><polyline class="cls-4" points="1403.68 -665.22 1399.53 -649.71 1397.68 -644.13 1394.82 -635.43 1378.66 -619.82 1340.66 -594.5 1335.59 -591.16 1327.07 -585.47 1322.43 -582.37 1298.66 -509.88 1299.34 -505.45 1300.25 -499.59 1305.78 -463.36 1348.13 -387.08 1401.48 -334.45 1473.39 -208.58 1474.02 -168.83 1423.47 -2.73 1420.22 33.03 1437.57 99.59 1462.73 134.2 1493.14 176.1 1519.78 241.49 1532.11 309.4 1533.07 314.63 1542.18 321.33 1555.26 330.91 1582.46 364.54 1599.27 387.34 1620.25 398.31 1638.61 407.91 1662.14 424.24 1648.58 472.43 1648.03 474.32 1650.86 477.06 1681.87 506.75 1700.82 557.42 1703.92 834.45 1693.93 876.36"/><path class="cls-5" d="M1669.23,2259.81l-215.18,260.82-111.69,154.22L1235.75,2885.5s-22.66,80-35.36,109.18"/><polygon class="cls-6" points="1584.69 1371.61 1585.17 1375.82 1593.85 1453.93 1595.4 1470.22 1595.51 1471.39 1594.97 1521.28 1611.94 1650.33 1659.87 1794.85 1683.64 1836.93 1697.7 1871.36 1712.32 1894.85 1743.83 1935.04 1782.5 1996.54 1792.7 2028.24 1792.38 2030.15 1788.33 2057.5 1762.41 2105.04 1741.84 2142.78 1725.9 2162.05 1706.71 2185.31 1665.34 2259.15 1671.69 2262.96 1771.93 2147.1 1796.28 2106.35 1806.84 2066.55 1807.61 2034.1 1805.34 2014.47 1784.96 1969 1756.66 1921.64 1745.63 1897.58 1728.92 1871.55 1702.51 1827.49 1678.93 1787.78 1664.96 1752.41 1658.36 1733.54 1643.83 1663.72 1623.27 1596.57 1616.48 1528.45 1621.77 1481.67 1617.65 1454.36 1610.71 1423.3 1607.84 1410.46 1611.07 1298 1611.24 1291.28 1618.03 1205.27 1621.1 1105.95 1637.82 1057.21 1647.2 1050.74 1673.52 983.64 1673.67 974.36 1677.84 963.85 1690.32 930.93 1700.32 888.72 1702.18 849.05 1687.38 871.25 1664.11 917.23 1664.49 970.24 1654.47 1013.77 1647.51 1033.54 1594.74 1100.2 1590.73 1257.8 1590.53 1265.72 1584.69 1371.61"/><polygon class="cls-7" points="1600.38 1668.95 1603.07 1674.26 1650.88 1649.97 1648.18 1644.65 1600.38 1668.95"/><polyline class="cls-8" points="1798.79 1524.46 1795.39 1528.5 1785.99 1539.84"/><polyline class="cls-9" points="1798.79 1524.46 1795.39 1528.5 1785.99 1539.84"/><polyline class="cls-10" points="1798.79 1524.46 1795.39 1528.5 1785.99 1539.84"/><polygon class="cls-11" points="2116.33 2406.34 2115.24 2411.11 2112.18 2414.95 2107.77 2417.07 2102.88 2417.07 2098.47 2414.95 2095.41 2411.11 2094.32 2406.34 2095.41 2401.57 2098.47 2397.74 2102.88 2395.62 2107.77 2395.62 2112.18 2397.74 2115.24 2401.57 2116.33 2406.34"/><polyline class="cls-12" points="1839.34 1880.11 1814.77 1876.45 1812.92 1876.14"/><polyline class="cls-12" points="2211.22 2408.64 2217.26 2409.66 2223.54 2415.69 2236.53 2426.41 2261.3 2451.35 2273.34 2459.88"/><polyline class="cls-12" points="1303.39 1820.33 1304.76 1839.48 1311.99 1849.03 1366.7 1860.37 1386.77 1865.13 1415.64 1872.86 1469.97 1889.09 1476.93 1890.8 1514.62 1900.12 1538.09 1904.47 1554.12 1907.53 1559.79 1888.81 1562.07 1865.78"/><polyline class="cls-12" points="1714.63 1644.75 1718.55 1641.37 1723.91 1637.57 1733.47 1624.94 1737.83 1611.46 1730.01 1590.15 1719.59 1578.4 1705.27 1576.22 1699.28 1576.53 1686.96 1576.93"/><polyline class="cls-12" points="1807.58 1795.13 1803.58 1798.35 1784.84 1809.97 1769.66 1816.15 1757.61 1818.25 1752.69 1817.96 1743.18 1812.95 1742.71 1812.06"/><polyline class="cls-12" points="715.18 2208.81 724.73 2164.01 729.51 2142.7 750.34 2144.45 763.38 2144.46 781.17 2134.02 792.05 2122.7 799.52 2113.26 805.18 2078.16 804.32 2067.74 791.72 2059.03 763.08 2054.24 729.64 2034.25 717.05 2022.49 709.23 2011.62 719.51 1983.72"/><polyline class="cls-12" points="1208.18 2432.45 1200.39 2454.84 1190.43 2477.06 1186.57 2480.57 1181.94 2482.59 1177.17 2482.04 1171.97 2480.73 1166.16 2478.28 1156.89 2471.82"/><polyline class="cls-12" points="718.73 1713 714.04 1725.07 705.07 1729.19 661.91 1706.81 650.15 1703.72 634.67 1707.54 620.59 1712.57 610.73 1714.73 604.19 1714.25 581.78 1708.62"/><polyline class="cls-12" points="1336.11 1600.97 1323.96 1581.86 1306.88 1561.55 1289.51 1545.01 1285.47 1532.27 1286.63 1512.84 1296.19 1489.37 1306.9 1472.83 1322.53 1456.6 1349.76 1435.42 1371.46 1424.41 1389.41 1416.02 1394.93 1406.75 1392.89 1389.04 1384.79 1385.85 1368.01 1390.78 1340.5 1403.82 1332.09 1413.97"/><polyline class="cls-12" points="1866.42 1104.14 1870.75 1109.7 1875.25 1117.91 1879.27 1139.74 1890.05 1174.95 1890.37 1182.73 1880.9 1189.83 1868.4 1193.87 1848.45 1199.26 1813.7 1206.98"/><polyline class="cls-12" points="1874.66 1050.4 1878.04 1038.95 1882.97 1023.06 1888.5 1011.84 1897.87 997.69 1929.57 962.71 1938.13 954.37 1952.97 942.24"/><polyline class="cls-12" points="1850.56 1580.91 1847.13 1587.11 1848.11 1591.14 1853.8 1595.84 1879.17 1606.47 1913.05 1618.88"/><polyline class="cls-12" points="1905.47 1080.59 1909.65 1087.11 1919.23 1108.38 1943.68 1173.71 1953.36 1201.59 1956.67 1217.32"/><polyline class="cls-12" points="1827.74 1306.38 1834.59 1304.14 1855.67 1295.38 1885.59 1287.82 1887.84 1287.79"/><polyline class="cls-12" points="2170.25 1452.78 2170.21 1455.83 2176.25 1465.74 2193.99 1501.18 2205.25 1518.79 2221.95 1541.97"/><polyline class="cls-12" points="1932.87 1378 1930.2 1383.11 1931.93 1415.23 1934.41 1428.85 1946.91 1466.81 1950.96 1476.72 1953.43 1486.29"/><polyline class="cls-12" points="2524.38 2633.69 2520.08 2636.41 2514.74 2639.32 2486.08 2653.14 2414.34 2682.64 2337.96 2715.68 2290.85 2739.64 2268.07 2750.36 2253.82 2758.33 2239.98 2769.98 2236.94 2773.66"/><polyline class="cls-12" points="1789.7 1771.23 1796.8 1765.12 1804.4 1758.49 1809.69 1753.89 1827.48 1738.38 1845.12 1723 1864.31 1706.28 1868.54 1702.6 1839.1 1667.82"/><polyline class="cls-12" points="1976.4 2173.77 1966.92 2180.73 1962.95 2183.63 1945.18 2194.51 1942.7 2195.55 1939.57 2195.56 1936.8 2194.5 1930.78 2191.17 1886.93 2154.74"/><polyline class="cls-12" points="2108.9 2517.27 2105.14 2513.5 2097.59 2510.11 2073.25 2501.43"/><polyline class="cls-12" points="1199.7 1128.97 1204.96 1123.92 1209.04 1118.84 1229.3 1095.54 1231.51 1090.83 1232.18 1086.74"/><polyline class="cls-12" points="1303.44 1365.11 1297.54 1367.87 1281.06 1373.5 1250.43 1385.01 1246.23 1387.78 1241.69 1392.98 1233.02 1408.88"/><polyline class="cls-12" points="1837.89 1342.22 1834.18 1342.94 1827.58 1338.46 1813.36 1327.21 1809.88 1325.06 1803.4 1322.27 1801.19 1321.81 1796.59 1322.24"/><line class="cls-12" x1="1547.26" y1="1697.51" x2="1607.64" y2="1710.45"/><polyline class="cls-12" points="1553.5 1671.03 1547.26 1697.51 1537.33 1744.19"/><polyline class="cls-12" points="1854.01 1907.39 1854.93 1900.57 1855.15 1898.99 1854.95 1894.38 1852.97 1889.48 1850.14 1884.56 1845.14 1880.97 1839.34 1880.11"/><polyline class="cls-12" points="1945.75 2582.16 1941.41 2587.8 1935.63 2597.52 1926.95 2609.05 1920.92 2620.51 1870.81 2689.42 1857.63 2709.91 1841.08 2738.62 1834.19 2751.07 1829.7 2760.16 1824.35 2768.26 1818.94 2772.26 1808.52 2776.34 1802.37 2777.33 1797.7 2777.02 1789.34 2769.69 1776.78 2763.07 1770.62 2758.48 1758.67 2751.01 1738.17 2740.88 1731.68 2739.1"/><polyline class="cls-12" points="788.91 1903.88 776.76 1917.5 762.41 1929.89"/><polyline class="cls-12" points="762.41 1929.89 759.6 1935.82 756.94 1938.64 753.58 1940.52 749.09 1941.63 745.11 1940.58 742.62 1937.82 741.69 1934.27 742.66 1929.96 744.76 1926.65 747.53 1924.74 751.43 1924.27 755.92 1925.28 760.28 1927.27 762.41 1929.89"/><polyline class="cls-12" points="1186.75 1713.4 1183.32 1708.73 1175.48 1694.71 1172.2 1689.79 1154.61 1667.21"/><polyline class="cls-12" points="1285.57 1994.01 1312.69 1998.74 1341.15 2003.64 1403.26 2017.17 1421.89 2021.88 1432.03 2022.72 1459.08 2026.53 1496.2 2033.85 1532.59 2040.14 1563.04 2046.89 1571.69 2049.16"/><polyline class="cls-12" points="794.73 2006.64 790.57 2004.15 783.8 1996.84 773.77 1992.28 739.84 1985 719.51 1983.72 703.22 1982.58 688.41 1983.03 681.43 1980.09 678.89 1979.88 674.87 1977.41"/><polyline class="cls-12" points="961.59 2357.77 964.6 2362.73 961.76 2377.92 955.71 2419.26 947.93 2460.59 945.21 2479.11 942.23 2494.19 936.54 2515.46 935.72 2516.99 933.71 2518.45 929.96 2519.67 923.64 2520.4 895.59 2501.27 882.93 2493.2 879.64 2491.85 874.82 2491.14"/><polyline class="cls-12" points="2067.01 2105.69 2074.65 2098.64 2086.53 2087.05 2102.16 2077.93 2112.14 2078.8 2131.67 2099.28 2175.47 2149.37"/><polyline class="cls-12" points="1753.61 2455.73 1748.86 2463.11 1732.6 2488.49 1730.01 2494.65 1730.09 2502.88"/><polyline class="cls-12" points="1265.58 2523.05 1272.33 2532.46 1276.66 2536.5 1282.66 2540.22 1288.82 2542.85 1294.18 2544.24 1353.57 2549.77 1364.51 2552.52 1379.48 2557.9 1383.67 2559.05 1385.14 2559.07"/><polyline class="cls-12" points="1346.35 2242.8 1345.3 2221.09 1343.85 2207.21 1344.92 2197.79 1346.77 2190.61 1350.28 2184.52"/><polyline class="cls-12" points="1322.34 2316.91 1329.43 2313.7 1332.57 2310.77 1334.91 2307.23 1337.28 2302.49 1339.44 2293.32 1346.35 2242.8"/><polyline class="cls-12" points="779.22 2220.11 774.88 2227.69 762.32 2252.38 756.23 2265.97 751.46 2282.39 747.41 2298.88"/><polyline class="cls-12" points="869.08 852.6 867.34 857.21 859.95 875.84 857.72 885.03 857.72 889.18 862.21 904.23 865.97 915.2"/><polyline class="cls-12" points="1557.78 1473.76 1557.34 1471.4 1556.96 1462.93 1557.73 1444.69 1562.22 1419.66 1565.61 1404.55 1569.46 1394.62 1571.15 1386.58"/><polyline class="cls-12" points="1661.51 2393.48 1655.76 2401.73 1646.67 2411.3 1634.55 2428.14 1620.22 2449.24"/><polyline class="cls-12" points="1246.25 2222.88 1258.91 2224.91 1310.58 2234.66 1346.35 2242.8"/><polyline class="cls-12" points="837.83 2439.51 835.93 2443.51 832.84 2447.78 813.38 2462.74 809.8 2467.78 793.59 2503.6"/><polyline class="cls-12" points="674.87 1977.41 665.04 1970.05 659.23 1965.04 656.07 1961.69 655 1959.92"/><polyline class="cls-12" points="920.09 1928.49 920.94 1922.31 922.88 1909.16 925.54 1900.47 936.12 1878.83 936.52 1877.09"/><polyline class="cls-12" points="1486.15 919.67 1516.5 923.45 1528.98 922.74 1533.52 921.9 1539.45 918.5 1544.98 911.94 1550.75 900.3 1555.34 885.39 1557.42 867.19 1555.99 840.27 1548.24 792.62 1536.35 710.4 1532.46 687.9 1529.18 676.12 1521.35 657.38"/><line class="cls-12" x1="682.9" y1="2203.65" x2="694.17" y2="2148.07"/><polyline class="cls-12" points="653.8 1857.15 632.18 1888.76 616.55 1912.67"/><polyline class="cls-12" points="1962.07 1841.27 1915.95 1781.19 1887.73 1744.44"/><polyline class="cls-12" points="1093.05 1776.99 1080.02 1759.3 1067.57 1736.39"/><polyline class="cls-12" points="1962.07 1841.27 1983.32 1860.88 1990.35 1875.64 1989.02 1883.77 1978.93 1894.8 1971.9 1901.92"/><polyline class="cls-12" points="1888.17 1893.04 1921.12 1870.49 1929.03 1864.29 1931.15 1863.11 1953.37 1849.11 1962.07 1841.27"/><polyline class="cls-12" points="1354.98 1113.14 1371.64 1102.65 1393.35 1095.13"/><polyline class="cls-12" points="1530.32 1664.98 1540.33 1667.99 1553.5 1671.03 1573.56 1675.61 1591.38 1680.71 1596.1 1684.49 1599.87 1690.33 1607.64 1710.45 1628.17 1758.81 1629.68 1767.87 1627.98 1776.36 1625.71 1778.64 1622.37 1779.59"/><polyline class="cls-12" points="1812.92 1876.14 1787.42 1872.21 1779.48 1872.86 1774.95 1873.71 1773.17 1875.42 1772.32 1877.68 1770.38 1887.4"/><line class="cls-13" x1="1814.77" y1="1876.45" x2="1813.95" y2="1881.1"/><polyline class="cls-14" points="1839.34 1880.11 1814.77 1876.45 1812.92 1876.14"/><polyline class="cls-15" points="2686.12 2872.74 2682.74 2874.73 2681.4 2875.61 2680.48 2875.34 2657.44 2842.14 2644.19 2830.84 2637.01 2824.98 2622.43 2804.36 2613.74 2791.15 2611.16 2788.69 2608.17 2786.04 2602.36 2777.23 2595.39 2763.88 2587.07 2750.43 2527.84 2658.83 2523.41 2652.3 2518.43 2646.06 2514.74 2639.32 2512.26 2634.88 2488.06 2598.94 2431.2 2511.16 2425.41 2503.49 2405.48 2478.99 2378.94 2449.46 2373.84 2444.47 2334.55 2404.82 2283.78 2352.64 2276.95 2344.74 2272.26 2338.51 2265.26 2326.58 2247.44 2307.51 2242.94 2304.74 2240.29 2303.89 2233.35 2302.84 2225.39 2295.37"/><polyline class="cls-16" points="2686.12 2872.74 2682.74 2874.73 2681.4 2875.61 2680.48 2875.34 2657.44 2842.14 2644.19 2830.84 2637.01 2824.98 2622.43 2804.36 2613.74 2791.15 2611.16 2788.69 2608.17 2786.04 2602.36 2777.23 2595.39 2763.88 2587.07 2750.43 2527.84 2658.83 2523.41 2652.3 2518.43 2646.06 2514.74 2639.32 2512.26 2634.88 2488.06 2598.94 2431.2 2511.16 2425.41 2503.49 2405.48 2478.99 2378.94 2449.46 2373.84 2444.47 2334.55 2404.82 2283.78 2352.64 2276.95 2344.74 2272.26 2338.51 2265.26 2326.58 2247.44 2307.51 2242.94 2304.74 2240.29 2303.89 2233.35 2302.84 2225.39 2295.37"/><polyline class="cls-13" points="2304.25 916.49 2315.5 893.39 2319.27 864.7 2313.7 831.87 2318.15 807.54 2302.95 701.89 2301.42 638.24 2191.92 352.39 2176.2 311.37 2162.62 255.47 2146.22 240.97"/><polyline class="cls-15" points="1796.59 1322.24 1793.59 1322.8 1786.08 1325.95 1779.12 1329.54 1749.96 1348.9 1747 1349.31 1744.37 1349.05 1740.17 1347.91 1738.05 1346.29 1735.01 1342.61 1725.5 1325.4 1719.6 1316.57 1717.08 1314.4 1714.75 1313.64 1711.91 1313.73 1708.54 1315.27 1706.83 1317.37 1701.79 1328.22 1700.97 1332.33 1701.96 1339.3 1702.59 1341.8 1705.6 1353.96 1707.72 1359.84 1709.21 1362.47 1713.9 1368.55"/><polyline class="cls-10" points="1796.59 1322.24 1793.59 1322.8 1786.08 1325.95 1779.12 1329.54 1749.96 1348.9 1747 1349.31 1744.37 1349.05 1740.17 1347.91 1738.05 1346.29 1735.01 1342.61 1725.5 1325.4 1719.6 1316.57 1717.08 1314.4 1714.75 1313.64 1711.91 1313.73 1708.54 1315.27 1706.83 1317.37 1701.79 1328.22 1700.97 1332.33 1701.96 1339.3 1702.59 1341.8 1705.6 1353.96 1707.72 1359.84 1709.21 1362.47 1713.9 1368.55"/><polyline class="cls-15" points="1785.99 1539.84 1781.06 1541.73 1774.9 1541.92 1767.39 1541.09 1746.6 1533.54 1740.85 1532.18 1738.22 1532.14 1732.44 1534.18 1728.03 1537.98 1725.85 1541.13 1722.38 1549.45 1720.72 1555.88 1719.11 1570.72 1719.59 1578.4"/><polyline class="cls-10" points="1785.99 1539.84 1781.06 1541.73 1774.9 1541.92 1767.39 1541.09 1746.6 1533.54 1740.85 1532.18 1738.22 1532.14 1732.44 1534.18 1728.03 1537.98 1725.85 1541.13 1722.38 1549.45 1720.72 1555.88 1719.11 1570.72 1719.59 1578.4"/><polyline class="cls-15" points="1763.71 1468.7 1759.68 1467.83 1741.13 1450.27 1739.7 1448.63 1738.42 1444.94 1738.99 1440.31 1740.94 1437.81 1743.09 1437.03 1752.04 1435.42 1754.83 1434.37 1756.51 1432.61 1759.41 1426.94"/><polyline class="cls-10" points="1763.71 1468.7 1759.68 1467.83 1741.13 1450.27 1739.7 1448.63 1738.42 1444.94 1738.99 1440.31 1740.94 1437.81 1743.09 1437.03 1752.04 1435.42 1754.83 1434.37 1756.51 1432.61 1759.41 1426.94"/><polyline class="cls-13" points="1386.77 1865.13 1382.33 1882.03 1380.54 1894.18 1380.63 1900.6"/><polyline class="cls-13" points="1427.9 1828.81 1425.64 1839 1424.12 1841.08 1421.96 1848.06 1415.64 1872.86 1411.3 1907.12 1410.26 1909.38"/><polyline class="cls-13" points="1380.63 1900.6 1379.89 1902.84 1337.98 1895.07 1336.99 1898.52 1336.81 1900.53 1336.47 1902.94"/><polyline class="cls-13" points="1469.97 1889.09 1464.21 1916.17 1462.23 1920.66"/><polyline class="cls-15" points="2001.85 2015.27 2001.48 2011.94 1994.64 1999.64 1990.91 1995.28 1978.37 1981.73 1938.77 1940.53 1935.87 1936.71 1932.92 1931.24 1932.37 1928 1933.27 1913.01 1934.15 1901.54 1934.55 1886.34 1933.97 1875.55 1931.15 1863.11"/><polyline class="cls-10" points="2001.85 2015.27 2001.48 2011.94 1994.64 1999.64 1990.91 1995.28 1978.37 1981.73 1938.77 1940.53 1935.87 1936.71 1932.92 1931.24 1932.37 1928 1933.27 1913.01 1934.15 1901.54 1934.55 1886.34 1933.97 1875.55 1931.15 1863.11"/><polyline class="cls-15" points="1933.27 1913.01 1924.34 1919.49 1913.49 1927.64 1909.27 1923.47 1899.61 1916.42 1895.71 1914.22"/><polyline class="cls-10" points="1933.27 1913.01 1924.34 1919.49 1913.49 1927.64 1909.27 1923.47 1899.61 1916.42 1895.71 1914.22"/><polyline class="cls-15" points="1990.23 2024.09 1996.3 2019.83 2001.85 2015.27"/><polyline class="cls-10" points="1990.23 2024.09 1996.3 2019.83 2001.85 2015.27"/><polyline class="cls-13" points="1931.63 2511.82 1926.83 2523.72 1914.34 2542.97 1912.02 2547.25 1906.63 2554.95"/><polyline class="cls-17" points="1659.21 1961.26 1656.05 1962.72 1648.73 1963.58 1629.59 1962.21 1622.42 1962.62 1618.95 1963.28"/><polyline class="cls-13" points="1679.07 1887.2 1666.76 1885.98 1667.61 1876.36 1668.66 1869.44 1669.02 1867.11 1676.94 1855.42 1677.32 1852.78 1676.47 1849 1661.85 1821.56 1657.6 1815.8 1645.82 1794.76 1636.48 1772.12 1629.68 1767.87"/><polyline class="cls-15" points="1403.2 1829.75 1393.72 1828.22 1360.3 1821.47 1317.39 1812.03 1315.22 1811.79 1304.78 1812.85"/><polyline class="cls-16" points="1403.2 1829.75 1393.72 1828.22 1360.3 1821.47 1317.39 1812.03 1315.22 1811.79 1304.78 1812.85"/><polyline class="cls-15" points="1283.55 1872.41 1291.43 1884.56 1293.1 1888.09"/><polyline class="cls-10" points="1283.55 1872.41 1291.43 1884.56 1293.1 1888.09"/><polyline class="cls-13" points="1718.94 1376.8 1685.54 1385.25 1663.27 1397.71 1659.87 1416.57 1660.62 1435.44 1671.19 1453.93 1691.57 1455.81 1704.78 1459.21 1730.42 1456.19 1741.13 1450.27"/><polyline class="cls-13" points="1878.38 565.05 1880.99 581.12 1863.63 608.3 1858.35 624.15 1859.86 645.65 1873.82 666.41 1882.12 699.61 1883.25 720.37 1880.62 741.89 1896.84 763.76 1912.32 775.47 1920.61 796.97 1924.76 824.52 1919.1 834.71 1915.71 867.54 1890.43 882.05 1880.58 890.58 1844.01 901.88 1826.65 919.98 1802.89 924.89 1790.43 934.7 1771.93 943.76 1760.62 960.36 1739.86 1009.04 1745.91 1050.54 1735.34 1081.11 1742.51 1120.36 1741.76 1140.73 1758.36 1164.89 1767.04 1171.29 1785.44 1179.28"/><line class="cls-13" x1="872.05" y1="842.32" x2="869.08" y2="852.6"/><line class="cls-13" x1="919.02" y1="857.51" x2="916.75" y2="866.98"/><line class="cls-13" x1="1024.8" y1="924.33" x2="1016.67" y2="931.23"/><line class="cls-13" x1="1111.18" y1="1018.96" x2="1103.95" y2="1026.07"/><polyline class="cls-15" points="1418.63 1539.38 1414.99 1535.62 1414.99 1532.73 1418.06 1526.74 1419.46 1522.78 1420.19 1517.19 1419.83 1514.08 1417.56 1504.9 1404.68 1472.24 1402.79 1462.59 1402.36 1457.94 1402.69 1453.47 1404.09 1449.6 1407.33 1444.64 1413.12 1439.32 1417.12 1437.17 1421.95 1435.24 1442.32 1429.2 1443.99 1428.19 1445.39 1426.1 1446 1421.58 1445.48 1418.82 1443.71 1415.86 1441.25 1414.23 1437.92 1412.77 1429.76 1411.37 1413.62 1410.1 1409.92 1409.17 1408.38 1407.79 1407.24 1405.91 1406.65 1401.89 1407.32 1399.27 1408.63 1397.33 1410.06 1396.28 1412.23 1395.46 1417.61 1394.91 1432.44 1395.4 1436.38 1394.49 1438.49 1392.03 1439.39 1388.84 1438.68 1385.35 1437 1382.81 1435.3 1381.36 1429.63 1379.46 1400.38 1373.12 1393.95 1372.06 1386.86 1371.56 1373.7 1371.67 1360.87 1373.68 1350.46 1376.55 1339.39 1380.63 1320.93 1389.22 1309.76 1393.88 1304.46 1395.24 1300.87 1394.86 1296.98 1393.68 1294.05 1392.24 1289.57 1388.64 1287.45 1386.15 1283.71 1380.26 1281.06 1373.5 1279.62 1367.99 1279.95 1361.3 1293.06 1325.76 1300.64 1303.17 1304.59 1285.93 1305.13 1277.98 1302.85 1268.12 1300.92 1262.71 1298.05 1257.14 1281.28 1234.38 1278.16 1229.38 1275.91 1226.05 1269.47 1218.41 1241.38 1187.39 1208.18 1149.08 1201.83 1141.58 1201.66 1139.82 1202.06 1138.65 1205.75 1135.33"/><polyline class="cls-13" points="1966.92 2180.73 1969.48 2188.34 1967.07 2218.99 1963.39 2228.84 1951.22 2258.79 1947.56 2264.83"/><polyline class="cls-13" points="1708.54 1315.27 1702.79 1282.24 1699.77 1273.18 1696.09 1261.19 1693.36 1256.3 1689.96 1254.97 1683.93 1255.16 1680.34 1256.58 1674.97 1260.53 1671.29 1269.59 1671 1273.94 1668.08 1291 1668.55 1304.13 1675.44 1318.37 1687.69 1341.01 1693.07 1343.37 1702.59 1341.8"/><polyline class="cls-13" points="1695.24 1567.24 1719.11 1570.72 1724.68 1573.73 1730.04 1578.36 1742.43 1607.44 1743.36 1613.96 1742.37 1620 1739.16 1626.7 1726.28 1642.89"/><polyline class="cls-15" points="1776.26 1514.37 1779.4 1515.75 1785.31 1518.76 1788.95 1521.27 1794.5 1525.68 1807.38 1537.63 1811.14 1540.45"/><polyline class="cls-10" points="1776.26 1514.37 1779.4 1515.75 1785.31 1518.76 1788.95 1521.27 1794.5 1525.68 1807.38 1537.63 1811.14 1540.45"/><polyline class="cls-15" points="1877.6 1088.31 1872.95 1091.83 1851.38 1108.66 1832.08 1126.71 1821.44 1134.49 1816.43 1138.78 1807.07 1148.07 1798.63 1158.2 1794.74 1163.52 1787.74 1174.73 1785.44 1179.28 1781.79 1186.48 1776.93 1198.71 1773.19 1211.31 1771.97 1217.75 1771.35 1224.29 1771.44 1230.86 1772.11 1237.36 1775.27 1250.08 1796.59 1322.24 1797.31 1325.91 1797.64 1332.37 1796.94 1338.81 1795.19 1345.02 1792.44 1350.88 1788.82 1356.22 1780.27 1365.91 1777.23 1371.61 1775.34 1377.78 1774.67 1384.21 1775.26 1390.65 1777.1 1396.85 1790.25 1426.42 1799.78 1450.47 1800.3 1453.81 1799.52 1456.75 1794.29 1460.88 1791.46 1462.51 1788.33 1462.93 1775.43 1460.79 1768.96 1461.42 1765.9 1463.27 1764.12 1465.49 1763.71 1468.7 1764.59 1471.73 1777.91 1494.13 1781.78 1499.43 1784.62 1505.21 1784.56 1507.68 1783.84 1509.59 1782.57 1511.26 1780.85 1512.6 1776.26 1514.37"/><polyline class="cls-10" points="1877.6 1088.31 1872.95 1091.83 1851.38 1108.66 1832.08 1126.71 1821.44 1134.49 1816.43 1138.78 1807.07 1148.07 1798.63 1158.2 1794.74 1163.52 1787.74 1174.73 1785.44 1179.28 1781.79 1186.48 1776.93 1198.71 1773.19 1211.31 1771.97 1217.75 1771.35 1224.29 1771.44 1230.86 1772.11 1237.36 1775.27 1250.08 1796.59 1322.24 1797.31 1325.91 1797.64 1332.37 1796.94 1338.81 1795.19 1345.02 1792.44 1350.88 1788.82 1356.22 1780.27 1365.91 1777.23 1371.61 1775.34 1377.78 1774.67 1384.21 1775.26 1390.65 1777.1 1396.85 1790.25 1426.42 1799.78 1450.47 1800.3 1453.81 1799.52 1456.75 1794.29 1460.88 1791.46 1462.51 1788.33 1462.93 1775.43 1460.79 1768.96 1461.42 1765.9 1463.27 1764.12 1465.49 1763.71 1468.7 1764.59 1471.73 1777.91 1494.13 1781.78 1499.43 1784.62 1505.21 1784.56 1507.68 1783.84 1509.59 1782.57 1511.26 1780.85 1512.6 1776.26 1514.37"/><polyline class="cls-15" points="1784.62 1505.21 1788.85 1508.87 1798.8 1519.02 1800.25 1521.37 1798.79 1524.46"/><polyline class="cls-10" points="1784.62 1505.21 1788.85 1508.87 1798.8 1519.02 1800.25 1521.37 1798.79 1524.46"/><polyline class="cls-15" points="1703.87 1616.89 1690.58 1623.39 1664.09 1638.52 1655.49 1644.62 1644.77 1649.59"/><polyline class="cls-10" points="1703.87 1616.89 1690.58 1623.39 1664.09 1638.52 1655.49 1644.62 1644.77 1649.59"/><line class="cls-15" x1="1759.49" y1="1880.97" x2="1772.32" y2="1877.69"/><line class="cls-16" x1="1759.49" y1="1880.97" x2="1772.32" y2="1877.69"/><polyline class="cls-15" points="1697.23 1884.94 1689.49 1886.73 1679.07 1887.2"/><polyline class="cls-16" points="1697.23 1884.94 1689.49 1886.73 1679.07 1887.2"/><polyline class="cls-15" points="1602.72 1669.91 1596.81 1671.79 1590.96 1672.07 1581.13 1670.66 1559.53 1665.38 1542.07 1661.6 1540.1 1660.26 1539.88 1657.81 1531.84 1655.42"/><polyline class="cls-10" points="1602.72 1669.91 1596.81 1671.79 1590.96 1672.07 1581.13 1670.66 1559.53 1665.38 1542.07 1661.6 1540.1 1660.26 1539.88 1657.81 1531.84 1655.42"/><polyline class="cls-13" points="1305.1 1898.56 1381.02 1912.87 1476.2 1933.71 1527.53 1947.03"/><polyline class="cls-13" points="1337.98 1895.07 1293.1 1888.09 1284.69 1886.8"/><polyline class="cls-13" points="1622.04 1964.12 1618.95 1963.28 1462.23 1920.66 1451.95 1917.87 1410.26 1909.38 1379.89 1902.84"/><polyline class="cls-15" points="1515.98 1860.85 1515.91 1852.5 1606.38 1862.68 1668.66 1869.44 1687.8 1872.41 1696.19 1874.28"/><polyline class="cls-16" points="1515.98 1860.85 1515.91 1852.5 1606.38 1862.68 1668.66 1869.44 1687.8 1872.41 1696.19 1874.28"/><polyline class="cls-13" points="1845.02 2178.81 1846.18 2168.24 1845.71 2153.34 1823.54 2072.96 1816.16 2055.43"/><polyline class="cls-15" points="1717.77 2240.59 1736.24 2214.53 1771.36 2171.29 1787.76 2149.22 1796.58 2135.34 1804.14 2120.87 1809.24 2107.47 1813.39 2083.76 1816.31 2063.47 1816.16 2055.43 1813.97 2050.22 1810.61 2045.58 1808.69 2041.27 1808.16 2038.66 1809.98 2016.63 1805.93 1994.2 1801.63 1979.22 1799.77 1970.31 1799.61 1962.84 1800.31 1956.56 1811.99 1942.72 1820.19 1915.63"/><polyline class="cls-10" points="1717.77 2240.59 1736.24 2214.53 1771.36 2171.29 1787.76 2149.22 1796.58 2135.34 1804.14 2120.87 1809.24 2107.47 1813.39 2083.76 1816.31 2063.47 1816.16 2055.43 1813.97 2050.22 1810.61 2045.58 1808.69 2041.27 1808.16 2038.66 1809.98 2016.63 1805.93 1994.2 1801.63 1979.22 1799.77 1970.31 1799.61 1962.84 1800.31 1956.56 1811.99 1942.72 1820.19 1915.63"/><polyline class="cls-15" points="1859.51 1977.63 1852.07 1958.33 1839.01 1936.3 1832.87 1927.59 1826.12 1920.32 1820.19 1915.63"/><polyline class="cls-10" points="1859.51 1977.63 1852.07 1958.33 1839.01 1936.3 1832.87 1927.59 1826.12 1920.32 1820.19 1915.63"/><polyline class="cls-13" points="1834.2 2262.28 1845.18 2261.81 1895.33 2261.16 1920.51 2269.51"/><polyline class="cls-15" points="1965.68 2383.74 1947.42 2376.98 1919.27 2364.93 1887.68 2350.68 1877.32 2345.57 1869.63 2337.73 1860.33 2330.68 1848.66 2321.06 1826.01 2301.86 1784.57 2267.74 1752.45 2243.76 1746.06 2238 1745.8 2237.06 1746.53 2231.87 1749.71 2226.36 1769.3 2208.61 1782.86 2200.62 1792.27 2193.84 1804.89 2183.96 1813.26 2178.27 1818.37 2175.48 1826.2 2173.97 1833.93 2174.15 1842.06 2176.97 1845.02 2178.81 1849.54 2181.64 1880.67 2207.17 1934.55 2253.62 1947.56 2264.83"/><polyline class="cls-10" points="1965.68 2383.74 1947.42 2376.98 1919.27 2364.93 1887.68 2350.68 1877.32 2345.57 1869.63 2337.73 1860.33 2330.68 1848.66 2321.06 1826.01 2301.86 1784.57 2267.74 1752.45 2243.76 1746.06 2238 1745.8 2237.06 1746.53 2231.87 1749.71 2226.36 1769.3 2208.61 1782.86 2200.62 1792.27 2193.84 1804.89 2183.96 1813.26 2178.27 1818.37 2175.48 1826.2 2173.97 1833.93 2174.15 1842.06 2176.97 1845.02 2178.81 1849.54 2181.64 1880.67 2207.17 1934.55 2253.62 1947.56 2264.83"/><polyline class="cls-15" points="1623.03 2366.73 1638.52 2345.8 1660.5 2315.81 1710.01 2250.2 1717.77 2240.59"/><polyline class="cls-10" points="1623.03 2366.73 1638.52 2345.8 1660.5 2315.81 1710.01 2250.2 1717.77 2240.59"/><polyline class="cls-15" points="1811.14 1540.45 1817.08 1530.09 1818.52 1521.37 1817.26 1508.98 1809.78 1489.26 1794.29 1460.88 1784.63 1447.69 1773.53 1437.73 1759.41 1426.94 1737.29 1412.86 1730.93 1406.49 1727.11 1401.5 1723.37 1392.51 1718.94 1376.8 1716.94 1372.93 1713.9 1368.55"/><polyline class="cls-10" points="1811.14 1540.45 1817.08 1530.09 1818.52 1521.37 1817.26 1508.98 1809.78 1489.26 1794.29 1460.88 1784.63 1447.69 1773.53 1437.73 1759.41 1426.94 1737.29 1412.86 1730.93 1406.49 1727.11 1401.5 1723.37 1392.51 1718.94 1376.8 1716.94 1372.93 1713.9 1368.55"/><polyline class="cls-13" points="1860.33 2330.68 1866.09 2324.27 1873.45 2322.76 1920.51 2269.51 1934.55 2253.62"/><polyline class="cls-15" points="1148.85 1815.82 1142.43 1815.57 1125.97 1816.32 1090.17 1816.18 1051.4 1816.95 1021.81 1816.91 992.82 1814.8 964.14 1810.45 932.49 1803.16 890.66 1791.35 850.28 1777.76 830.54 1770.31 781.4 1750.5 777.22 1750.2 770.25 1751.58 767.86 1750.78 714.04 1725.07"/><polyline class="cls-15" points="1305.13 1277.98 1317.34 1279.26 1324.19 1280.12 1336.64 1273.46 1347.1 1263.09 1381.1 1230.43 1426.56 1198.83 1434.68 1189.26 1438.73 1179.99 1439.89 1165.21 1437.91 1155.07 1428.42 1154.12"/><polyline class="cls-10" points="1305.13 1277.98 1317.34 1279.26 1324.19 1280.12 1336.64 1273.46 1347.1 1263.09 1381.1 1230.43 1426.56 1198.83 1434.68 1189.26 1438.73 1179.99 1439.89 1165.21 1437.91 1155.07 1428.42 1154.12"/><polyline class="cls-15" points="1204.96 1123.92 1199.85 1118.5 1171.61 1087.34 1163.09 1076.27 1151.6 1063.24 1111.18 1018.96 1024.81 924.33 1003.28 902.19 994.4 894.5 984.99 887.22 975.53 880.98 955.6 870.39 939.58 864.15 919.02 857.51 872.05 842.32 858.36 837.91 773.77 811.28 646.71 771.34 612.27 759.36 589.65 749.83 585.86 748.79 571.51 742.83 526.34 721.24 481.56 696.86 470.59 689.68 450.01 674.33 442.59 668.33 430.66 657.38 421.36 647.81 411.05 636.3 394.4 614.01 380.64 593.7"/><polyline class="cls-10" points="1204.96 1123.92 1199.85 1118.5 1171.61 1087.34 1163.09 1076.27 1151.6 1063.24 1111.18 1018.96 1024.81 924.33 1003.28 902.19 994.4 894.5 984.99 887.22 975.53 880.98 955.6 870.39 939.58 864.15 919.02 857.51 872.05 842.32 858.36 837.91 773.77 811.28 646.71 771.34 612.27 759.36 589.65 749.83 585.86 748.79 571.51 742.83 526.34 721.24 481.56 696.86 470.59 689.68 450.01 674.33 442.59 668.33 430.66 657.38 421.36 647.81 411.05 636.3 394.4 614.01 380.64 593.7"/><polyline class="cls-15" points="1913.49 1927.64 1910.82 1930.47 1907.88 1935.6 1904.01 1942.2"/><polyline class="cls-10" points="1913.49 1927.64 1910.82 1930.47 1907.88 1935.6 1904.01 1942.2"/><polyline class="cls-15" points="1931.15 1863.11 1928.19 1859.48 1922.63 1853.87 1913.55 1846.44 1909.23 1844.11 1872.65 1829.75 1855.08 1821.79 1835.46 1811.47 1830.77 1808.47 1823.68 1801.77 1807.59 1780.35 1796.8 1765.12 1787.86 1752.49 1777.75 1737.72 1761.63 1711.83 1758.03 1705.81 1733.42 1658.91 1726.28 1642.89 1723.91 1637.57 1722.29 1627.71 1699.28 1576.53 1695.24 1567.24 1690.17 1555.59 1687.73 1549.48 1685.9 1543.15 1684.7 1536.7 1683.46 1516.6 1683.17 1509.71"/><polyline class="cls-10" points="1931.15 1863.11 1928.19 1859.48 1922.63 1853.87 1913.55 1846.44 1909.23 1844.11 1872.65 1829.75 1855.08 1821.79 1835.46 1811.47 1830.77 1808.47 1823.68 1801.77 1807.59 1780.35 1796.8 1765.12 1787.86 1752.49 1777.75 1737.72 1761.63 1711.83 1758.03 1705.81 1733.42 1658.91 1726.28 1642.89 1723.91 1637.57 1722.29 1627.71 1699.28 1576.53 1695.24 1567.24 1690.17 1555.59 1687.73 1549.48 1685.9 1543.15 1684.7 1536.7 1683.46 1516.6 1683.17 1509.71"/><polyline class="cls-15" points="1283.55 1872.41 1278.54 1874.6 1274.12 1875.68 1267.09 1875.85 1255.98 1874.91 1203.53 1868.03 1161.82 1863.42"/><polyline class="cls-10" points="1283.55 1872.41 1278.54 1874.6 1274.12 1875.68 1267.09 1875.85 1255.98 1874.91 1203.53 1868.03 1161.82 1863.42"/><polyline class="cls-15" points="1311.99 1849.03 1303.49 1856.91 1283.55 1872.41"/><polyline class="cls-10" points="1311.99 1849.03 1303.49 1856.91 1283.55 1872.41"/><polyline class="cls-15" points="1820.19 1915.63 1812.84 1910.63 1805.55 1901.89"/><polyline class="cls-10" points="1820.19 1915.63 1812.84 1910.63 1805.55 1901.89"/><polyline class="cls-15" points="1717.77 2240.59 1728.12 2237.9 1746.06 2238"/><polyline class="cls-10" points="1717.77 2240.59 1728.12 2237.9 1746.06 2238"/><polyline class="cls-15" points="2225.39 2295.37 2218.82 2286.07 2218.81 2281.82 2216.99 2276.93 2200.04 2256.9 2195.84 2253 2177.6 2239 2144.11 2205.48 2142.51 2202.88 2142.47 2199.24 2143.83 2190.58"/><polyline class="cls-10" points="2225.39 2295.37 2218.82 2286.07 2218.81 2281.82 2216.99 2276.93 2200.04 2256.9 2195.84 2253 2177.6 2239 2144.11 2205.48 2142.51 2202.88 2142.47 2199.24 2143.83 2190.58"/><line class="cls-13" x1="1813.95" y1="1881.1" x2="1812.63" y2="1888.5"/><polyline class="cls-13" points="1812.63 1888.5 1811.39 1894.54 1810.23 1900.09"/><polyline class="cls-13" points="1810.23 1900.09 1809.86 1901.64 1805.55 1901.89 1763.45 1891.46"/><polyline class="cls-13" points="1809.86 1901.64 1835.61 1908.78 1861.46 1918.78 1895.23 1935.95 1904.01 1942.2 1916.93 1950.76 1929.1 1960.2 1940.7 1970.1 1944.75 1975.1 1947.58 1980.11 1949.1 1986.98 1948.06 1988.66 1947.77 1990.57 1949.85 1993.4"/><polyline class="cls-13" points="1949.85 1993.4 1954.76 1998.82 1958.15 2002.55"/><polyline class="cls-13" points="1958.15 2002.55 1960.89 2005.38 1963.91 2004.25 1967.77 2004.25 1971.73 2005.58 1975.03 2007.46 1979.94 2010.75 1985.8 2017.75 1990.23 2024.09 2027.11 2067.74 2066.92 2113.58 2134.45 2189.38 2142.47 2199.24"/><polyline class="cls-13" points="1895.71 1914.22 1886.45 1908.98 1876.74 1903.7"/><polyline class="cls-13" points="1876.74 1903.7 1875.31 1902.36 1873.81 1902.84 1870.55 1903.55 1865.16 1903.55 1854.93 1900.57"/><polyline class="cls-13" points="1875.31 1902.36 1876.98 1900.86 1878.49 1897.12 1879.44 1892.68 1878.73 1887.05 1876.11 1883.33 1863.26 1870.71 1843.83 1853.65"/><polyline class="cls-15" points="1806.08 1548.77 1809.4 1543.23 1811.14 1540.45"/><polyline class="cls-10" points="1806.08 1548.77 1809.4 1543.23 1811.14 1540.45"/><polyline class="cls-15" points="1776.26 1514.37 1770.64 1512.11 1762.52 1509.72 1757.59 1508.6 1751.57 1507.98 1742.63 1508.11 1719.12 1509.93 1699.74 1510.71 1683.17 1509.71 1670.47 1507.27 1664.26 1505.06 1658.38 1502.02 1652.97 1498.24 1648.08 1493.77 1636.49 1481.2 1633.26 1478.65 1630.01 1477.02 1626.48 1476.76 1620.17 1478.76"/><polyline class="cls-10" points="1776.26 1514.37 1770.64 1512.11 1762.52 1509.72 1757.59 1508.6 1751.57 1507.98 1742.63 1508.11 1719.12 1509.93 1699.74 1510.71 1683.17 1509.71 1670.47 1507.27 1664.26 1505.06 1658.38 1502.02 1652.97 1498.24 1648.08 1493.77 1636.49 1481.2 1633.26 1478.65 1630.01 1477.02 1626.48 1476.76 1620.17 1478.76"/><polyline class="cls-18" points="1623.03 2366.73 1457.98 2568.32 1403.6 2652.13 1369.68 2722.3 1361.06 2740.14 1344.35 2788.88 1340.52 2819.6 1339.73 2825.89 1334.87 2832.23 1301.85 2875.54 1283.68 2930.86"/><polyline class="cls-19" points="1623.03 2366.73 1457.98 2568.32 1403.6 2652.13 1369.68 2722.3 1361.06 2740.14 1344.35 2788.88 1340.52 2819.6 1339.73 2825.89 1334.87 2832.23 1301.85 2875.54 1283.68 2930.86"/><polyline class="cls-18" points="1622.21 1042.36 1612.83 1048.83 1582.9 1096 1580.26 1105.42 1568.8 1146.1 1560.21 1230.31 1559.22 1240 1559.63 1269.03 1559.81 1282.42 1560.9 1293.19 1563.2 1315.61 1563.51 1316.73 1571.92 1346.23 1572.92 1364.79 1572.9 1376.9 1571.15 1386.58"/><polyline class="cls-19" points="1622.21 1042.36 1612.83 1048.83 1582.9 1096 1580.26 1105.42 1568.8 1146.1 1560.21 1230.31 1559.22 1240 1559.63 1269.03 1559.81 1282.42 1560.9 1293.19 1563.2 1315.61 1563.51 1316.73 1571.92 1346.23 1572.92 1364.79 1572.9 1376.9 1571.15 1386.58"/><polyline class="cls-18" points="1990.35 1875.64 2000.2 1881.09 2009.27 1887.89 2046.89 1929.91 2054.5 1934.97"/><polyline class="cls-19" points="1990.35 1875.64 2000.2 1881.09 2009.27 1887.89 2046.89 1929.91 2054.5 1934.97"/><polyline class="cls-14" points="2211.22 2408.64 2217.26 2409.66 2223.54 2415.69 2236.53 2426.41 2261.3 2451.35 2273.34 2459.88"/><polyline class="cls-20" points="2211.22 2408.64 2217.26 2409.66 2223.54 2415.69 2236.53 2426.41 2261.3 2451.35 2273.34 2459.88"/><polyline class="cls-14" points="1303.39 1820.33 1304.76 1839.48 1311.99 1849.03 1366.7 1860.37 1386.77 1865.13 1415.64 1872.86 1469.97 1889.09 1476.93 1890.8 1514.62 1900.12 1538.09 1904.47 1554.12 1907.53 1559.79 1888.81 1562.07 1865.78"/><polyline class="cls-14" points="1714.63 1644.75 1718.55 1641.37 1723.91 1637.57 1733.47 1624.94 1737.83 1611.46 1730.01 1590.15 1719.59 1578.4 1705.27 1576.22 1699.28 1576.53 1686.96 1576.93"/><polyline class="cls-14" points="1807.58 1795.13 1803.58 1798.35 1784.84 1809.97 1769.66 1816.15 1757.61 1818.25 1752.69 1817.96 1743.18 1812.95 1742.71 1812.06"/><polyline class="cls-14" points="715.18 2208.81 724.73 2164.01 729.51 2142.7 750.34 2144.45 763.38 2144.46 781.17 2134.02 792.05 2122.7 799.52 2113.26 805.18 2078.16 804.32 2067.74 791.72 2059.03 763.08 2054.24 729.64 2034.25 717.05 2022.49 709.23 2011.62 719.51 1983.72"/><polyline class="cls-14" points="1208.18 2432.45 1200.39 2454.84 1190.43 2477.06 1186.57 2480.57 1181.94 2482.59 1177.17 2482.04 1171.97 2480.73 1166.16 2478.28 1156.89 2471.82"/><polyline class="cls-14" points="718.73 1713 714.04 1725.07 705.07 1729.19 661.91 1706.81 650.15 1703.72 634.67 1707.54 620.59 1712.57 610.73 1714.73 604.19 1714.25 581.78 1708.62"/><polyline class="cls-14" points="1336.11 1600.97 1323.96 1581.86 1306.88 1561.55 1289.51 1545.01 1285.47 1532.27 1286.63 1512.84 1296.19 1489.37 1306.9 1472.83 1322.53 1456.6 1349.76 1435.42 1371.46 1424.41 1389.41 1416.02 1394.93 1406.75 1392.89 1389.04 1384.79 1385.85 1368.01 1390.78 1340.5 1403.82 1332.09 1413.97"/><polyline class="cls-14" points="1866.42 1104.14 1870.75 1109.7 1875.25 1117.91 1879.27 1139.74 1890.05 1174.95 1890.37 1182.73 1880.9 1189.83 1868.4 1193.87 1848.45 1199.26 1813.7 1206.98"/><polyline class="cls-14" points="1874.66 1050.4 1878.04 1038.95 1882.97 1023.06 1888.5 1011.84 1897.87 997.69 1929.57 962.71 1938.13 954.37 1952.97 942.24"/><polyline class="cls-14" points="1850.56 1580.91 1847.13 1587.11 1848.11 1591.14 1853.8 1595.84 1879.17 1606.47 1913.05 1618.88"/><polyline class="cls-14" points="1905.47 1080.59 1909.65 1087.11 1919.23 1108.38 1943.68 1173.71 1953.36 1201.59 1956.67 1217.32"/><polyline class="cls-14" points="1827.74 1306.38 1834.59 1304.14 1855.67 1295.38 1885.59 1287.82 1887.84 1287.79"/><polyline class="cls-14" points="2170.25 1452.78 2170.21 1455.83 2176.25 1465.74 2193.99 1501.18 2205.25 1518.79 2221.95 1541.97"/><polyline class="cls-14" points="1932.87 1378 1930.2 1383.11 1931.93 1415.23 1934.41 1428.85 1946.91 1466.81 1950.96 1476.72 1953.43 1486.29"/><polyline class="cls-14" points="2524.38 2633.69 2520.08 2636.41 2514.74 2639.32 2486.08 2653.14 2414.34 2682.64 2337.96 2715.68 2290.85 2739.64 2268.07 2750.36 2253.82 2758.33 2239.98 2769.98 2236.94 2773.66"/><polyline class="cls-14" points="1789.7 1771.23 1796.8 1765.12 1804.4 1758.49 1809.69 1753.89 1827.48 1738.38 1845.12 1723 1864.31 1706.28 1868.54 1702.6 1839.1 1667.82"/><polyline class="cls-14" points="1976.4 2173.77 1966.92 2180.73 1962.95 2183.63 1945.18 2194.51 1942.7 2195.55 1939.57 2195.56 1936.8 2194.5 1930.78 2191.17 1886.93 2154.74"/><polyline class="cls-14" points="2108.9 2517.27 2105.14 2513.5 2097.59 2510.11 2073.25 2501.43"/><polyline class="cls-14" points="1199.7 1128.97 1204.96 1123.92 1209.04 1118.84 1229.3 1095.54 1231.51 1090.83 1232.18 1086.74"/><polyline class="cls-14" points="1303.44 1365.11 1297.54 1367.87 1281.06 1373.5 1250.43 1385.01 1246.23 1387.78 1241.69 1392.98 1233.02 1408.88"/><polyline class="cls-14" points="1837.89 1342.22 1834.18 1342.94 1827.58 1338.46 1813.36 1327.21 1809.88 1325.06 1803.4 1322.27 1801.19 1321.81 1796.59 1322.24"/><line class="cls-14" x1="1547.26" y1="1697.51" x2="1607.64" y2="1710.45"/><polyline class="cls-14" points="1553.5 1671.03 1547.26 1697.51 1537.33 1744.19"/><polyline class="cls-14" points="1854.01 1907.39 1854.93 1900.57 1855.15 1898.99 1854.95 1894.38 1852.97 1889.48 1850.14 1884.56 1845.14 1880.97 1839.34 1880.11"/><polyline class="cls-14" points="1945.75 2582.16 1941.41 2587.8 1935.63 2597.52 1926.95 2609.05 1920.92 2620.51 1870.81 2689.42 1857.63 2709.91 1841.08 2738.62 1834.19 2751.07 1829.7 2760.16 1824.35 2768.26 1818.94 2772.26 1808.52 2776.34 1802.37 2777.33 1797.7 2777.02 1789.34 2769.69 1776.78 2763.07 1770.62 2758.48 1758.67 2751.01 1738.17 2740.88 1731.68 2739.1"/><polyline class="cls-14" points="788.91 1903.88 776.76 1917.5 762.41 1929.89"/><polyline class="cls-14" points="762.41 1929.89 759.6 1935.82 756.94 1938.64 753.58 1940.52 749.09 1941.63 745.11 1940.58 742.62 1937.82 741.69 1934.27 742.66 1929.96 744.76 1926.65 747.53 1924.74 751.43 1924.27 755.92 1925.28 760.28 1927.27 762.41 1929.89"/><polyline class="cls-14" points="1186.75 1713.4 1183.32 1708.73 1175.48 1694.71 1172.2 1689.79 1154.61 1667.21"/><polyline class="cls-14" points="1285.57 1994.01 1312.69 1998.74 1341.15 2003.64 1403.26 2017.17 1421.89 2021.88 1432.03 2022.72 1459.08 2026.53 1496.2 2033.85 1532.59 2040.14 1563.04 2046.89 1571.69 2049.16"/><polyline class="cls-14" points="794.73 2006.64 790.57 2004.15 783.8 1996.84 773.77 1992.28 739.84 1985 719.51 1983.72 703.22 1982.58 688.41 1983.03 681.43 1980.09 678.89 1979.88 674.87 1977.41"/><polyline class="cls-14" points="961.59 2357.77 964.6 2362.73 961.76 2377.92 955.71 2419.26 947.93 2460.59 945.21 2479.11 942.23 2494.19 936.54 2515.46 935.72 2516.99 933.71 2518.45 929.96 2519.67 923.64 2520.4 895.59 2501.27 882.93 2493.2 879.64 2491.85 874.82 2491.14"/><polyline class="cls-14" points="2067.01 2105.69 2074.65 2098.64 2086.53 2087.05 2102.16 2077.93 2112.14 2078.8 2131.67 2099.28 2175.47 2149.37"/><polyline class="cls-14" points="1753.61 2455.73 1748.86 2463.11 1732.6 2488.49 1730.01 2494.65 1730.09 2502.88"/><polyline class="cls-14" points="1265.58 2523.05 1272.33 2532.46 1276.66 2536.5 1282.66 2540.22 1288.82 2542.85 1294.18 2544.24 1353.57 2549.77 1364.51 2552.52 1379.48 2557.9 1383.67 2559.05 1385.14 2559.07"/><polyline class="cls-14" points="1346.35 2242.8 1345.3 2221.09 1343.85 2207.21 1344.92 2197.79 1346.77 2190.61 1350.28 2184.52"/><polyline class="cls-14" points="1322.34 2316.91 1329.43 2313.7 1332.57 2310.77 1334.91 2307.23 1337.28 2302.49 1339.44 2293.32 1346.35 2242.8"/><polyline class="cls-14" points="779.22 2220.11 774.88 2227.69 762.32 2252.38 756.23 2265.97 751.46 2282.39 747.41 2298.88"/><polyline class="cls-14" points="869.08 852.6 867.34 857.21 859.95 875.84 857.72 885.03 857.72 889.18 862.21 904.23 865.97 915.2"/><polyline class="cls-14" points="1557.78 1473.76 1557.34 1471.4 1556.96 1462.93 1557.73 1444.69 1562.22 1419.66 1565.61 1404.55 1569.46 1394.62 1571.15 1386.58"/><polyline class="cls-14" points="1661.51 2393.48 1655.76 2401.73 1646.67 2411.3 1634.55 2428.14 1620.22 2449.24"/><polyline class="cls-14" points="1246.25 2222.88 1258.91 2224.91 1310.58 2234.66 1346.35 2242.8"/><polyline class="cls-14" points="837.83 2439.51 835.93 2443.51 832.84 2447.78 813.38 2462.74 809.8 2467.78 793.59 2503.6"/><polyline class="cls-14" points="674.87 1977.41 665.04 1970.05 659.23 1965.04 656.07 1961.69 655 1959.92"/><polyline class="cls-14" points="920.09 1928.49 920.94 1922.31 922.88 1909.16 925.54 1900.47 936.12 1878.83 936.52 1877.09"/><polyline class="cls-14" points="1486.15 919.67 1516.5 923.45 1528.98 922.74 1533.52 921.9 1539.45 918.5 1544.98 911.94 1550.75 900.3 1555.34 885.39 1557.42 867.19 1555.99 840.27 1548.24 792.62 1536.35 710.4 1532.46 687.9 1529.18 676.12 1521.35 657.38"/><line class="cls-14" x1="682.9" y1="2203.65" x2="694.17" y2="2148.07"/><polyline class="cls-14" points="653.8 1857.15 632.18 1888.76 616.55 1912.67"/><polyline class="cls-14" points="1962.07 1841.27 1915.95 1781.19 1887.73 1744.44"/><polyline class="cls-14" points="1093.05 1776.99 1080.02 1759.3 1067.57 1736.39"/><polyline class="cls-14" points="1962.07 1841.27 1983.32 1860.88 1990.35 1875.64 1989.02 1883.77 1978.93 1894.8 1971.9 1901.92"/><polyline class="cls-14" points="1888.17 1893.04 1921.12 1870.49 1929.03 1864.29 1931.15 1863.11 1953.37 1849.11 1962.07 1841.27"/><polyline class="cls-14" points="1354.98 1113.14 1371.64 1102.65 1393.35 1095.13"/><polyline class="cls-14" points="1530.32 1664.98 1540.33 1667.99 1553.5 1671.03 1573.56 1675.61 1591.38 1680.71 1596.1 1684.49 1599.87 1690.33 1607.64 1710.45 1628.17 1758.81 1629.68 1767.87 1627.98 1776.36 1625.71 1778.64 1622.37 1779.59"/><polyline class="cls-14" points="1812.92 1876.14 1787.42 1872.21 1779.48 1872.86 1774.95 1873.71 1773.17 1875.42 1772.32 1877.68 1770.38 1887.4"/><polyline class="cls-21" points="1399.95 1844.21 1402.27 1835.76 1403.2 1829.75 1405.67 1796.01 1407.4 1746.04 1408.72 1737.32 1411.88 1672.59 1414.58 1637.06 1418.73 1574.52 1418.75 1567.92 1414.04 1560.18 1406.86 1548.52"/><polyline class="cls-22" points="1316.81 1268.75 1326.93 1264.98 1332.63 1261.92 1337.04 1258 1359.31 1232.7 1368.55 1225.01 1389.36 1211.41 1405.69 1198.2 1418.22 1184.85 1424.37 1176.48 1427 1169.81 1428.08 1163.81 1428.42 1154.12 1413.85 1145.37 1378.26 1132.11 1370.09 1127.29 1363.06 1121.84 1354.98 1113.14 1346.21 1106.43 1337.53 1097.43 1327.67 1084.78 1317.82 1066.41 1314.43 1061.76 1309.1 1048.87 1298.69 1030.27 1295.91 1023.18 1294.17 999.95 1295.88 965.98 1297.16 949.41 1299.63 941.8 1298.08 915.63 1295.76 886.18 1289.73 857.03 1283.88 837.3 1281.27 828.87 1273.93 808.84 1262.13 782.11 1249.42 757.44 1248.46 755.26 1217.49 706.2 1209.13 695.28 1192.41 677.41 1176.17 655.26 1159.79 629.27 1145.62 601.26 1130.26 564.17 1122.98 555.43 1107.76 540.65 1056.31 496.06 1044.55 483.9 969.38 387.44 964 379.33 942.97 351.71 918 320.78 865.12 253.72 846.74 225.93 792.84 155.41 779.86 140.64 771.08 132.76 761.86 126.54 742.91 115.65 706.45 97.45 693.05 88.98 687.12 83.13 684.36 78.32 681.08 67.08 672.12 27.89 664.2 -0.32 656.46 -21.95 640.57 -59.58 619.56 -101.88 606.72 -124.76 571.44 -168.3 532.4 -210.66 502.75 -246.45 477.44 -275.32 462.51 -291.68 414.23 -354.99 383.66 -396.19 364.65 -423.31 356.32 -433.14 346.17 -441.96 334.47 -449.83 305.78 -465.3 274.49 -479.77 263.04 -487.28 251.96 -496.57 236.94 -510.92 232.54 -514.12 227.08 -515.81"/><polyline class="cls-22" points="1491.47 1857.65 1492.56 1847.91 1494.71 1829.29 1499.4 1810.36 1502.95 1790.59 1510.53 1760.54 1511.55 1756.77 1527.86 1680.28 1530.32 1664.98 1531.84 1655.42 1541.99 1588.95 1542.68 1580.65 1547.78 1526.27 1547.28 1501.75 1546.17 1485.24 1544.75 1476.72"/><polyline class="cls-22" points="1542.68 1580.65 1513.55 1578.65 1441.72 1574.77 1418.73 1574.52"/><polyline class="cls-22" points="1510.53 1760.54 1508.74 1758.56 1505.53 1756.67 1457.46 1747.27 1435.02 1742.71 1417.98 1738.77 1408.72 1737.32 1398.26 1734.81 1357.71 1724.88 1328.97 1719.72 1299.2 1715.18 1230.54 1697.1 1224.88 1694.2 1218.69 1688.84"/><polyline class="cls-22" points="1303.39 1820.33 1304.78 1812.85 1307.4 1801.77 1314.89 1781.44 1319.81 1760.36 1325.4 1732.33 1328.97 1719.72 1330.74 1706.32 1334.1 1689.08 1338.98 1656.85 1342.59 1648.35 1347.27 1643.63 1357.52 1637.15 1363.38 1635.64 1378.66 1634.51 1414.58 1637.06 1437.68 1643.89 1460.92 1648.13 1490.07 1649.79 1517.67 1651.96 1531.84 1655.42"/><polyline class="cls-22" points="1155.26 1965.14 1154.36 1976.09 1153.38 1996.61 1147.16 2053.61 1144.74 2070.73 1137.89 2121.8 1130.29 2173.67 1125.06 2206.57 1118.74 2242.61 1110.39 2278.01 1096.26 2353.13 1088.75 2394.55 1077.55 2429.11 1070.83 2448.98 1063.7 2465.31 1060.55 2470.99"/><polyline class="cls-22" points="1041.47 1947.92 1040.17 1955.45 1028.98 1997.17 1022.16 2049.82 1019.72 2056 1014.44 2091.7 1009.16 2118.5 1003.22 2145.37 1002.05 2152.88 998.7 2171.85 994.64 2199.09 983.81 2256.3 973.1 2309.79 970.15 2330.59 966.55 2347.97 963.16 2355.93 961.59 2357.77"/><polyline class="cls-22" points="1476.42 2268.73 1468.85 2280.09 1465.28 2290.71 1462.58 2304.18 1454.06 2351.66 1444.14 2399.92 1435.63 2449.26 1424.36 2500.53 1418.58 2522.6 1414.44 2531.01 1397.3 2553.39 1394.82 2555.69 1391.02 2558.1 1385.14 2559.07 1387.06 2565.29 1382.59 2569.36 1363.8 2592.78 1353.12 2607.65 1344.5 2618.25 1331.41 2636.35 1317.51 2652.39 1308.97 2665.76 1301.81 2674.67 1293.65 2686.16 1290.36 2688.13 1284.81 2690.14"/><polyline class="cls-22" points="1155.26 1965.14 1144.59 1962.36 1107.2 1958.65 1041.47 1947.92 1006.54 1941.63 920.09 1928.49 883.61 1922.73 853.27 1915.58 810.82 1908.26 788.91 1903.88"/><polyline class="cls-22" points="653.8 1857.15 659.44 1859.78 667.72 1869.63 672.2 1878.06 671.96 1887.1 671.26 1888.49 666.91 1890.54 662.9 1891.89 658.51 1891.69 656.85 1890.77 653.12 1885.2 651.68 1880.13 651.82 1867.77 653.8 1857.15"/><polyline class="cls-22" points="1144.74 2070.73 1110.61 2064.84 1066.61 2056.24 1031.08 2051.44 1022.16 2049.82 1004.9 2043.7 974.75 2039.32 945.05 2035.58 921.58 2031.76 902.32 2027.63 873.68 2022.21 830.26 2012.07 808.88 2009.83 798.29 2008.1 794.73 2006.64"/><polyline class="cls-22" points="1250.17 2196 1247.36 2195.68 1183.18 2184.44 1143.76 2176.63 1136.33 2174.53 1130.29 2173.67 1125.5 2173.36 1102.72 2170.02 1056.31 2160.62 1034.33 2157.36 1017.49 2155.44 1002.05 2152.88"/><polyline class="cls-22" points="1285.57 1994.01 1284.05 2002.08 1283.68 2007.69 1261.76 2129.43 1258.22 2145.9 1253.02 2173.89 1250.17 2196 1247.96 2214.34 1246.25 2222.88 1240.63 2252.85 1232.05 2294.11 1227.67 2297.61 1227.71 2303.33 1217.47 2370.31 1214.04 2385.64 1209.53 2418.46 1208.18 2432.45 1221 2462.02 1227.38 2472.95 1242.1 2496.13 1256.5 2514.96 1265.58 2523.05"/><polyline class="cls-22" points="961.59 2357.77 959.14 2358.76 951.68 2359.96 943.82 2359.37 903.68 2350.7 864.56 2345.14 856.09 2343.38 853.39 2340.93"/><polyline class="cls-22" points="920.09 1928.49 919.2 1934.39 916.07 1942.06 911.25 1973.35 907.78 1990.73 902.32 2027.63 898.22 2045.59 891.55 2089.22 883.26 2130.73 877.08 2161.58 869.4 2216.71 866.4 2234.98 860.38 2267.81 851.64 2324.62 850.7 2335.17 850.98 2338.86 853.39 2340.93 849.71 2344.93 846.86 2354.7 838.58 2391.01 839.14 2432.25 837.83 2439.51"/><polyline class="cls-22" points="1227.67 2297.61 1222.13 2297.89 1213.42 2296.71 1165.88 2288.31 1144.18 2285.17 1125.91 2281.76 1110.39 2278.01 1092.57 2275.24 1050.77 2267.47 996.97 2256.78 983.81 2256.3 965.76 2252.35 938.36 2247.36 908.42 2240.46 884.83 2236.78 874.85 2236.34 866.4 2234.98 861.64 2234.38 853.72 2231.94 833.33 2226.97 814.92 2223.58 795.21 2222.26 782.25 2220.84 779.22 2220.11 772.8 2218.39 749.6 2214.82 728.37 2210.7 715.18 2208.81 702.52 2207.07 682.9 2203.64 659.33 2198.37 605.8 2187.9 597.42 2187.47 581.07 2188.57 562.08 2196.77 542.24 2206.21 521.88 2219.28 503.13 2232.51 495.31 2239.54 488.71 2244.47 477.07 2250 438.64 2263.67 415.35 2272.55 394.54 2281.27 331.3 2310.97 299.62 2326.76 268.32 2340.75"/><polyline class="cls-22" points="1261.76 2129.43 1273.73 2131.87 1276.43 2134.18 1287.84 2141.68 1307.26 2153.09 1323.34 2166.1 1335.96 2175.51 1350.28 2184.52 1388.01 2209.91 1443.72 2246.43 1476.42 2268.73 1578.4 2338.12 1616.11 2362.23 1623.03 2366.73 1661.51 2393.48 1709.65 2422.39 1726.45 2434.41 1736.21 2442.69 1753.61 2455.73 1815.19 2497.96 1870.55 2533.24 1906.63 2554.95 1925.35 2567.89 1945.75 2582.16 1960.66 2593.66 1991.33 2615.92 2022.88 2635.72 2061.09 2661.12 2066.91 2664.54"/><polyline class="cls-22" points="1428.42 1154.12 1433.92 1144.27 1452.8 1084.84 1458.72 1059.31 1462.63 1029.96 1465.12 1020.61 1474.82 987.34 1482.42 963.02 1486.15 947.22 1487.04 934.27 1486.15 919.67 1485.52 912.21 1485.17 907.46 1477.21 884.29 1453.92 829.88 1433.75 785.06 1429.08 774.12 1415.38 746.75 1391.42 695.82 1388.57 691.26 1377.25 672.86 1362.86 652.43 1355.72 647.12 1327.61 639.92 1302.77 634.09 1286.4 627.88 1268.93 615.78 1249.52 599.04 1230.36 583.89 1217.9 573.28 1203.74 559.33 1191.03 538.25 1184.16 520.84 1171.15 486.76 1144.16 443.24 1131.44 425.62 1124.12 414.01 1108.76 391.5 1095.17 365.88 1090.09 353.7 1088.61 344.79 1089.01 338.66 1090.95 330.73 1094.37 322.82 1098.91 315.79 1108.45 302.51 1122.07 287.91"/><polyline class="cls-22" points="1283.88 837.3 1289.72 835.67 1307.74 828.49 1324.15 822.74 1366.4 809.88 1415.85 792.1 1433.75 785.06"/><polyline class="cls-22" points="1095.71 1017.08 1089.75 1022.71 1073.19 1038.67 1026.36 1087.72 1024.19 1094.12 1015.73 1103.39 1009.78 1112.47 1006.72 1121.18 1005.43 1126.99 1005.51 1133.37 1006.54 1138.32 1008.28 1143.77 1012.96 1153.24 1016.19 1157.38 1020.35 1165.17 1030.96 1177.77"/><polyline class="cls-22" points="1317.82 1066.41 1322.09 1063.18 1326.02 1062.48 1339.84 1057.73 1380.86 1046.03 1396.33 1040.22 1404.63 1036.02 1424.82 1029.6 1446.62 1023.18 1460.14 1019.65 1465.12 1020.61"/><polyline class="cls-22" points="1295.88 965.98 1302.14 966.43 1333.89 958.48 1351.15 953.48 1370.66 948.42 1430.63 928 1474.03 914.53 1480.52 912.71 1485.52 912.21"/><polyline class="cls-22" points="1880.4 1093.91 1877.6 1088.31 1874.79 1061.1 1874.66 1050.4 1872.11 1035.96 1871.86 1025.35 1868.51 982.2 1865.34 932.65 1866.22 917.71 1870.93 907.92 1874.54 900.94 1880.58 890.58"/><polyline class="cls-22" points="2000.06 1442.01 2001.8 1443.87 2009.17 1448.5 2025.59 1453.63 2040.92 1454.87 2059.79 1455.6 2075.56 1455.48 2116.2 1453.11 2138.15 1452.53 2170.25 1452.78 2178.87 1452.81 2199.7 1454.96 2206.29 1456.2 2209.31 1459.55 2219.31 1467.43 2233.68 1480.56 2248.12 1496.6 2264.52 1513.82 2282.61 1530.67 2313.14 1566.88 2315.77 1568.54"/><polyline class="cls-22" points="1837.89 1342.22 1847.61 1340.18 1853.43 1340.01 1858.5 1340.42 1869.19 1343.34 1875.73 1345.77 1896.41 1356.58 1911.79 1367.23 1923.06 1372.63 1932.87 1378 1938.14 1381.06 1949.41 1386.59 1959.7 1392.98 1973.21 1407.1 1981.4 1422.82 1988.73 1432.1 1994.44 1437.65 1998.04 1439.76 2000.06 1442.01 1997.85 1444.3 1998.46 1448.89 2003.28 1456.76 2012.79 1465.08 2051.92 1488.69 2063.95 1497.09 2081.68 1503.86 2097.66 1506.79 2116.34 1506.58 2140.79 1505.56"/><polyline class="cls-22" points="1936.71 1592.73 1946.99 1595.17 1952.85 1594.84 1964.05 1593.11 1981.13 1588.95 1991.76 1588.37 2008.06 1588.48 2015.12 1590.74 2042.83 1597.95 2064.16 1604.99 2106.57 1617.48 2130.51 1625.65 2156.29 1635.41 2176.89 1647.01 2193.85 1659.42 2204.71 1671.74 2221.72 1688.39 2237.61 1706.04 2255.22 1721.85 2273.28 1734.7 2298.28 1757.26 2322.68 1778.8 2343.06 1792.68 2364.03 1803.85 2374.68 1807.96 2383.49 1812.35 2406.79 1813.79 2416.78 1816.38 2426.37 1818.53 2433.19 1821.56 2440.84 1826.91 2447.58 1833.52 2457 1844.45 2468.91 1860.46 2476.75 1868.72 2482.5 1873.22 2488.89 1877.09 2499.48 1880.55 2515.11 1884.02 2538.43 1887.46 2560.4 1888.74 2572.78 1891.4 2596.19 1903.19 2602.22 1907.79 2615.97 1917.91 2633.68 1935.16 2652.75 1956.3 2670.34 1979.01 2704.96 2027.53 2748.43 2093.57 2768.14 2116.39 2791.16 2135.37 2846.37 2195.35 2863.89 2217.15 2878.43 2236.24 2894.7 2259.05 2906.3 2270.78 2925.28 2288.89 2943.67 2308.21 2960.9 2331.48 2989.64 2375.78 3000.4 2388.65 3002.62 2390.08 3009.6 2392"/><polyline class="cls-22" points="2229.21 2278.43 2227.38 2286.33 2225.39 2295.37 2222.54 2306.17 2218.34 2336.98 2215.1 2373.59 2211.22 2408.64 2207.44 2448.61 2205.95 2489.2 2202.25 2526.63 2196.9 2566.84 2187.63 2602.56 2176.61 2637.76 2159.89 2673.12 2151.9 2686.85 2148.52 2692.94 2140.53 2703.23 2131.71 2716.22 2121.93 2734.34 2104.96 2759.23 2077.3 2804.03 2051.71 2844.82 2036.09 2868.15 2020.01 2892.3 2006.64 2915.59 1990.56 2941.61 1985.88 2948.07 1972.62 2971.23 1954.32 2995.8 1912.45 3065.01 1870.97 3125.44 1852.17 3157.5 1832.19 3189.91 1819.53 3210.1 1799.93 3238.76 1788.8 3256.44 1774.92 3281.76 1758.06 3309.7 1736.08 3329.38 1728.92 3334.69 1718.1 3338.82 1708.3 3338.89 1698.02 3334.22 1688.27 3327.78 1675.34 3318 1671.48 3308.87 1672.27 3301.51 1674.45 3293.51 1681.12 3281.74 1684.22 3277.13 1687.69 3273.96 1695.34 3268.08 1706.53 3265.39 1713.48 3266.19 1717.35 3268.29"/><polyline class="cls-22" points="2032.28 2226.53 2026.14 2233.09 2007.72 2261.54 1992.83 2285.76 1986.21 2299.11 1977.25 2340.6 1967.94 2374.93 1965.68 2383.74 1956.21 2423.72 1947.91 2456.46 1945.69 2467.38 1941.79 2486.38 1931.63 2511.82"/><polyline class="cls-22" points="1945.69 2467.38 1952.55 2468.98 2008.77 2485.35 2065.66 2500.07 2073.25 2501.43"/><polyline class="cls-22" points="1967.94 2374.93 1976.03 2376.72 1978.9 2377.97 2014.2 2387.54 2038.75 2393.4 2063.51 2400.18 2091.48 2407.67 2105.32 2406.34"/><polyline class="cls-22" points="1957.08 2271.75 1970.45 2245.36 1976.65 2221.25 1979.11 2195.11 1981.67 2178.81"/><polyline class="cls-22" points="1931.63 2511.82 1938.93 2515.52 1950.72 2529.77 1959.26 2537.62 1983.12 2553.76 2010.03 2569.93 2034.77 2581.88 2048.53 2587.09"/><polyline class="cls-22" points="1919.89 2043.16 1912.25 2037.83 1904.1 2030.51 1891.6 2016.51 1874.67 1996.71 1859.51 1977.63"/><polyline class="cls-22" points="1284.81 2690.14 1276.04 2691.59 1260.28 2691.71 1244.52 2688.25 1231.4 2684.71 1213.19 2678.52 1198.06 2674.74 1187.69 2668.89 1185.67 2666.77 1184.9 2663.51 1185.05 2658.34 1194.73 2637.17 1200.16 2626.4 1206.01 2617.88 1211.85 2607.36 1213.06 2603.95"/><polyline class="cls-22" points="1622.37 1779.59 1566.42 1767.52 1511.55 1756.77"/><polyline class="cls-22" points="1185.15 1711.62 1163.4 1728.32 1132.29 1748.29 1093.05 1776.99"/><polyline class="cls-22" points="1285.57 1994.01 1283.83 1993.74 1256.69 1988.74 1226.38 1982.12 1195.79 1977.23 1174.98 1971.76 1165.7 1968.21 1162.72 1965.64 1155.26 1965.14"/><polyline class="cls-22" points="799.52 2113.26 802.34 2113.7 835.58 2120.51 853.31 2123.69 883.26 2130.73"/><polyline class="cls-22" points="1163.4 1834.59 1161.82 1863.42 1161.45 1872.38 1160.05 1887.33 1156.66 1931.37 1156.05 1956.06 1155.26 1965.14"/><polyline class="cls-22" points="788.91 1903.88 789.14 1882.06 787.8 1868.18 783.91 1856.67 779 1850.08 769.24 1840.81 760.31 1835.26 745.47 1828.53 728 1822.7 702.18 1815.67 686.85 1813.02 677.26 1813.09 671.25 1815.08 665.91 1818.93 661.2 1824.58 658.65 1830 653.8 1857.15"/><polyline class="cls-22" points="1337.04 1258 1338.75 1259.72 1341.97 1261.99 1347.1 1263.09 1355.15 1263.78 1365.85 1262.95 1381.79 1258.1 1398.16 1255.51 1410.3 1254.91 1418.98 1253.47 1426.97 1250.51 1434.46 1246.14 1441.48 1240.49 1449.15 1236.18 1454.45 1234.9 1461.75 1235.12 1468.65 1236.21 1488.97 1241.7"/><polyline class="cls-22" points="761.64 817.65 753.09 840.89 744.96 860.45 741.42 866.75 745.14 870.63 750.12 873.23 766.46 879.48 815.6 896.82 840.96 905.22"/><polyline class="cls-22" points="1159.9 1803.04 1159.47 1807.63 1158.79 1817.44 1158.63 1822.07 1163.4 1834.59"/><polyline class="cls-22" points="1163.4 1834.59 1168.57 1823.86 1169.61 1818.9 1171.01 1812.26 1173.74 1802.66"/><polyline class="cls-22" points="1947.56 2264.83 1957.08 2271.75 1986.21 2299.11"/><polyline class="cls-22" points="1137.89 2121.8 1148.87 2124.53 1190.32 2132.33 1227.92 2137.76"/><polyline class="cls-23" points="1173.09 1727.22 1177.69 1720.7 1186.75 1713.4 1204.96 1699.01 1218.69 1688.84 1320.51 1611.96 1336.11 1600.97 1375.42 1572.48 1406.86 1548.52 1418.63 1539.38 1424.52 1533.16 1426.78 1528.3 1428.15 1524.43 1428.22 1515.86 1426.48 1509.41"/><polyline class="cls-23" points="1883.15 1919.95 1884.36 1916.67 1886.45 1908.98 1887.65 1903.96 1888.17 1893.04 1885.72 1885.11 1879.06 1877.51 1861.78 1862.63 1844.27 1844.68 1807.58 1795.13 1798.12 1782.95 1789.7 1771.23 1777.6 1754.37 1754.26 1717.96 1745.44 1703.29 1733.46 1681.32 1714.63 1644.75 1703.87 1616.89 1698.03 1601.18 1686.96 1576.93 1665.42 1538.37 1644.31 1502.82 1642.59 1500.57"/><polyline class="cls-23" points="1918.7 2052.39 1918.74 2049.08 1919.89 2043.16 1925.71 2032.37 1937.78 2016.33 1949.93 2003.34 1954.76 1998.82 1962.06 1991.84 1966.42 1986.45"/><polyline class="cls-23" points="1426.48 1509.41 1424.79 1504.72 1422.85 1500.32 1410.83 1471.64 1410.12 1466.4 1410.38 1463.11 1412.23 1457.46 1415.64 1452.6 1419.77 1449.32 1422.74 1447.86 1461.54 1438.05 1466.87 1436.33 1471.63 1434.01 1476.04 1431.09 1481.82 1425.66 1489.55 1414.91 1496.08 1403.4 1500.46 1393.76 1504.83 1381.26 1507.42 1371 1508.3 1364.79 1507.53 1359.2 1506.37 1356.12 1503.05 1351.19 1500.62 1348.96 1495.44 1346.05 1492.27 1345.15 1486.34 1344.89 1483.09 1345.52 1480 1346.68 1469.65 1352.54 1459.88 1356.61 1452.25 1358.77 1441.81 1360.47 1433.88 1360.81 1425.96 1360.35 1418.12 1359.1 1402.68 1355.45 1394.86 1354.11 1384.32 1353.15 1376.39 1353.1 1368.48 1353.61 1360.61 1354.67 1347.74 1357.66 1337.75 1361.15 1323.42 1367.97 1319.62 1369.11 1316.99 1369.44 1313.04 1369.27 1306.77 1367.26 1303.44 1365.11 1300.61 1362.33 1298.39 1359.04 1296.87 1355.38 1296.1 1351.5 1296.56 1344.92 1313.66 1298.1 1316.74 1285.8 1317.34 1279.26 1317.6 1274.12 1316.81 1268.75 1313.39 1260.22 1308.76 1253.11 1299.55 1241.04 1283.58 1223.63 1272.17 1211.3 1236.85 1171.28 1205.75 1135.33 1199.7 1128.97 1175.08 1101.93 1158.85 1085.22 1125.71 1049.84 1103.94 1026.07 1095.71 1017.08 1067.24 986.18"/><path class="cls-23" d="M1067.24,986.18l-4.43-4.87-38.56-42.38-7.58-7.7-2.89-2.94-16.32-17.16L986,900.94l-12.23-9.24-13.81-7.8L945,877,925,869.7,916.75,867l-14.58-4.76-33.09-9.62-50.25-16-48.11-15.91-9.08-3L656.79,783.82,617.3,770.2l-36.09-13.47L563,749.07l-28-12.82-22.29-11.51L490,712.22,471.31,701l-15.8-10.25L436.24,675.4l-12-11.33-16.91-18S294,496,284,471s-85-37-105-57-70-73-86-88S44,202,35,186"/><polyline class="cls-23" points="2218.97 835.65 2215.17 831.77 2179.93 794.55 2166.76 781.55 2158.43 774.73 2153.32 771.12 2149.44 769.21 2142.73 767.7 2134.44 767.9 2124.87 770.65 2119.31 773.19 2115.86 775.18 2112.53 777.83 2107.05 783.92 2104.83 787.58 2103.02 791.45 2099.97 800.8 2086.58 856.4 2076.92 891.52 2074.94 900.2 2072.99 911.54 2073.32 921.69 2074.68 928.28 2078.32 937.32 2091.07 964.32 2094.1 972.55 2096.59 980.83 2098.06 989.3 2098.75 998.37 2097.67 1005.14 2094.58 1013.62 2090.61 1019.75 2087.1 1023.62 2082.37 1027.64 2077.95 1030.41 2066.22 1035.18 2054.73 1038.49 1973.64 1058.63 1935.16 1068.68 1915.59 1075.26 1905.47 1080.59 1895.83 1084.59 1886.34 1089.91 1880.4 1093.91 1873.77 1098.37 1866.42 1104.14 1855.89 1112.29 1845.93 1121.21 1828.32 1139.48 1820.27 1150.85 1811.48 1164.4 1806.5 1173.01 1802.53 1181.21 1799.52 1188.21 1796.45 1197.35 1793 1210.46 1791.88 1220.37 1791.82 1230.35 1794.19 1243.69 1795.1 1246.84 1800.43 1259.33 1807.21 1271.31 1820.04 1292.27 1827.74 1306.38 1829.63 1310.24 1831.78 1317.78 1837.89 1342.22 1843.59 1366.34 1847.53 1378.09 1849.94 1383.96 1854.26 1392.57 1871.78 1419.73 1875.82 1428.62 1877.99 1436.23 1879.29 1444.97 1879.68 1456.91 1880.83 1469.44 1883.73 1483.26 1885.55 1488.31 1893.69 1504.91 1926.93 1547.34 1933.44 1558.3 1937.6 1567.54 1939.14 1572.15 1940.23 1579.23 1940.1 1583.11 1939.19 1587.51 1936.71 1592.73"/><polyline class="cls-23" points="1683.46 1516.6 1677.19 1519.06 1673.91 1520.81 1669.75 1526.24 1666.83 1533.2 1665.42 1538.37"/><polyline class="cls-23" points="3009.6 2392 3006.17 2372.49 2998.22 2347.37 2993.14 2329.37 2990.21 2317.11 2983.83 2283.52 2981 2264.34 2980.13 2255.67 2979.37 2234.94 2978.15 2216.61 2976.05 2198.02 2973.2 2181.18 2969.03 2161.42 2965.68 2142.06 2963.78 2131.82 2962.51 2127.67 2959.16 2119.5 2943 2074.66 2936.02 2051.7 2933.73 2041.38 2925.85 1997.03 2918.98 1971.35 2899.07 1898.67 2893.86 1875.54 2886.46 1846.89 2867.31 1776.91 2855.67 1732.63 2847.33 1704.57 2834.15 1663.41 2826.5 1637.86 2818.88 1612.44 2806.57 1575.46 2798.35 1551.22 2788.66 1525.73 2779.3 1504.25 2773.16 1491.88 2765.72 1478.27 2759.48 1468.03 2746.75 1450.37 2737.36 1439.26 2719.4 1419.31 2703.13 1401.27 2654.15 1344.41 2624.98 1304.51 2616.18 1291.33 2570.38 1221.14 2517.78 1136.31 2507.5 1118.15 2500.1 1107.38 2493.07 1099.36 2483.3 1089.44 2468.41 1076.02 2445.77 1058.71 2428.15 1046.21 2424.02 1043.25 2417.54 1037.68 2406.89 1027.56 2397.49 1017.29 2386.05 1003.56 2350.52 962.9 2329.61 940.76 2316.48 927.87 2304.25 916.49 2239.9 856.64 2218.97 835.65"/><polyline class="cls-23" points="1167.61 1775.61 1167.41 1748.7 1169.36 1737.83 1173.09 1727.22"/><polyline class="cls-23" points="1173.74 1802.66 1173.44 1796.85 1172.74 1787.44 1171.71 1782.47 1167.61 1775.61"/><polyline class="cls-23" points="1167.61 1775.61 1163.61 1783.18 1159.89 1797.43 1159.9 1803.04"/><line class="cls-23" x1="1918.67" y1="2053.72" x2="1918.7" y2="2052.39"/><path class="cls-23" d="M1642.59,1500.57l-6.47-7.45s-7.77-10.93-15.95-14.36-18.35-8.51-33.59-8.51c-3.93,0-21.62,2-21.62,2l-7.18,1.47-13,3-6.26,1.4-27.27,7.63-31.75,6.07-21,7.43-32,10.16"/><polyline class="cls-23" points="1936.71 1592.73 1935.2 1595.05 1932.15 1597.35 1924.12 1600.04 1919.49 1601.26 1912.28 1601.72 1907.74 1601.48 1897.49 1599.45 1886.48 1596.11 1866.83 1588.44 1854.25 1582.99 1850.56 1580.91 1843.45 1576.73 1828.69 1566.7 1817.89 1558.61 1806.08 1548.77"/><polyline class="cls-23" points="1806.08 1548.77 1787.13 1532.05 1780.26 1527.03 1767.76 1520.77 1758.64 1517.99 1749.36 1516.56 1731.3 1515.57 1683.46 1516.6 1670.29 1513.56 1662.19 1510.89 1653.43 1506.74 1642.59 1500.57"/><polyline class="cls-24" points="1132.91 1803.93 1159.9 1803.04 1167.8 1802.94 1173.74 1802.66 1181.08 1802.35 1194.04 1801.64 1208.95 1802.66 1217.4 1803.47 1249.98 1808.47 1286.67 1816.08 1303.39 1820.33 1314.24 1822.93 1333.76 1827.89 1365.73 1835.61 1399.95 1844.21 1410.85 1846.28 1421.96 1848.06 1438.37 1850.7 1479.88 1856.01 1491.47 1857.65 1500.1 1858.76 1515.98 1860.85 1562.07 1865.78 1588.68 1868.32 1620.48 1871.54 1667.61 1876.36 1705.15 1880.69 1759.47 1885.81 1770.38 1887.4 1794.34 1890.89 1811.39 1894.54 1836.31 1901.12 1854.01 1907.39 1870.93 1914.22 1883.15 1919.95 1891.06 1924.8 1907.88 1935.6 1926.23 1948.59 1940.95 1961.14 1966.42 1986.45 1976.1 1997.15 1996.3 2019.83 2037.77 2070.7 2053.86 2089.28 2060.38 2097.42"/><path class="cls-24" d="M2060.38,2097.42l6.63,8.27,16.12,19,60.7,65.93,9.11,10.22,49.27,49.53,27,28.1,10.17,10,37.24,41.14,19.33,19.28,36.77,38.25,37.64,37.66,11.28,10.7,27.86,30.43,21.09,26.92,18.46,25.59,35,52.47L2518.3,2625l6.08,8.7,27,42.31,69.94,105.62,21,31.13,6.92,8.91,20.36,27.19,16.55,23.89,5.72,8.15,49.49,64.9,21.7,28.52,26.69,32.9,37.07,51.38,14.52,23.47,13,23.67,15.85,32.32,5.83,15s36.86,140.18,73.7,205,129.57,261.69,165.14,388.73,193.1,470,198.18,640.26"/><path class="cls-24" d="M1132.91,1803.94l-81.65,3.61-29.1-.26L993.84,1805l-28.05-4.11-31-6.87-41.35-11.67-40.7-13.54-52.56-20.32L744,1725.2l-25.3-12.2-46.43-26.27-29.54-18L616.88,1654,589,1639.42l-27.7-16-26.12-14.36-26.87-15.38-27.48-16.64L447,1560s-41.9-28.77-66-59.26S302.25,1340.68,201.89,1314s-243.91-2.54-310-25.41S-493,1113.28-493,1113.28"/><polyline class="cls-25" points="833.73 1828.2 915.45 1847.89 1056.34 1866.05 1160.64 1881.13 1262.71 1895.88 1331.11 1907.5 1418.27 1924.61 1567.79 1961.06 1636.23 1979.98 1710.16 1997.33"/><polyline class="cls-26" points="833.73 1828.2 915.45 1847.89 1056.34 1866.05 1160.64 1881.13 1262.71 1895.88 1331.11 1907.5 1418.27 1924.61 1567.79 1961.06 1636.23 1979.98 1710.16 1997.33"/><polyline class="cls-25" points="1056.34 1866.05 1112.19 1880.58 1160.05 1887.33 1186.41 1891.03 1277.81 1904.66 1369.99 1920.89 1427.8 1933.15 1506.86 1951.38 1550.95 1963.99 1584.57 1973.04 1636.23 1979.98"/><polyline class="cls-26" points="1056.34 1866.05 1112.19 1880.58 1160.05 1887.33 1186.41 1891.03 1277.81 1904.66 1369.99 1920.89 1427.8 1933.15 1506.86 1951.38 1550.95 1963.99 1584.57 1973.04 1636.23 1979.98"/><polyline class="cls-25" points="1186.41 1891.03 1242.48 1904.77 1326.11 1918.81 1407.49 1934.72 1511.12 1957.42 1550.95 1963.99"/><polyline class="cls-26" points="1186.41 1891.03 1242.48 1904.77 1326.11 1918.81 1407.49 1934.72 1511.12 1957.42 1550.95 1963.99"/><polyline class="cls-25" points="1584.57 1973.04 1636.1 1990.32 1653.59 1997.38"/><polyline class="cls-26" points="1584.57 1973.04 1636.1 1990.32 1653.59 1997.38"/><polyline class="cls-27" points="1912.24 2075.05 1839.58 2044.66 1813.87 2034.92"/><polyline class="cls-28" points="1912.24 2075.05 1839.58 2044.66 1813.87 2034.92"/><polyline class="cls-27" points="1771.49 2018.85 1751.63 2011.33 1710.16 1997.33 1666.07 1982.47 1633.24 1972.14 1568.39 1953.37 1497.02 1934.63 1419.78 1916.75 1363.4 1905.09 1336.81 1900.53 1303.64 1894.26 1219.86 1881.29 1161.45 1872.38 911.86 1841.05 859.77 1832.89 833.73 1828.2 798.09 1821.14 742.01 1808.52 692.15 1795.76 672.16 1790.14 629.84 1776.79 589.12 1761.69 539.56 1739.65 482.47 1711.51"/><polyline class="cls-28" points="1771.49 2018.85 1751.63 2011.33 1710.16 1997.33 1666.07 1982.47 1633.24 1972.14 1568.39 1953.37 1497.02 1934.63 1419.78 1916.75 1363.4 1905.09 1336.81 1900.53 1303.64 1894.26 1219.86 1881.29 1161.45 1872.38 911.86 1841.05 859.77 1832.89 833.73 1828.2 798.09 1821.14 742.01 1808.52 692.15 1795.76 672.16 1790.14 629.84 1776.79 589.12 1761.69 539.56 1739.65 482.47 1711.51"/><polyline class="cls-27" points="1709.14 3324.36 1751.45 3235.16 1769.7 3198.06 1787.42 3163.71 1815.81 3112.71 1849.6 3056.4 2074.77 2691.79 2098.84 2651.5 2115.53 2620.18 2121.14 2609 2126.21 2597.39 2137.99 2566.3 2144.66 2543.24 2149.92 2521.29 2154 2498.27 2156.71 2471.37 2157.7 2443.3 2156.87 2418.87 2154.52 2391.62 2150.92 2368.64 2145.09 2343.22 2141.49 2330.34 2132.18 2302.88 2121.08 2276.44 2114.47 2262.65 2099.63 2236.15 2091.78 2223.9 2074.25 2199.47 2054.77 2176.45 2033.19 2154.42 2009.23 2133.69 1986 2116.31 1961.07 2100.52 1951.19 2094.9 1933.22 2085.36"/><polyline class="cls-28" points="1709.14 3324.36 1751.45 3235.16 1769.7 3198.06 1787.42 3163.71 1815.81 3112.71 1849.6 3056.4 2074.77 2691.79 2098.84 2651.5 2115.53 2620.18 2121.14 2609 2126.21 2597.39 2137.99 2566.3 2144.66 2543.24 2149.92 2521.29 2154 2498.27 2156.71 2471.37 2157.7 2443.3 2156.87 2418.87 2154.52 2391.62 2150.92 2368.64 2145.09 2343.22 2141.49 2330.34 2132.18 2302.88 2121.08 2276.44 2114.47 2262.65 2099.63 2236.15 2091.78 2223.9 2074.25 2199.47 2054.77 2176.45 2033.19 2154.42 2009.23 2133.69 1986 2116.31 1961.07 2100.52 1951.19 2094.9 1933.22 2085.36"/><polygon class="cls-29" points="2114.75 2406.34 2113.66 2410.79 2110.62 2414.22 2106.34 2415.84 2101.79 2415.28 2098.03 2412.68 2095.9 2408.63 2095.9 2404.05 2098.03 2400 2101.79 2397.4 2106.34 2396.84 2110.62 2398.47 2113.66 2401.89 2114.75 2406.34"/><line class="cls-30" x1="1644.76" y1="1649.59" x2="1602.72" y2="1669.91"/><line class="cls-31" x1="1933.22" y1="2085.36" x2="1912.24" y2="2075.05"/><line class="cls-31" x1="1813.87" y1="2034.92" x2="1771.5" y2="2018.85"/><line class="cls-32" x1="1644.76" y1="1649.59" x2="1602.72" y2="1669.91"/><line class="cls-33" x1="1933.22" y1="2085.36" x2="1912.24" y2="2075.05"/><line class="cls-33" x1="1813.87" y1="2034.92" x2="1771.5" y2="2018.85"/><line class="cls-10" x1="1644.76" y1="1649.59" x2="1602.72" y2="1669.91"/><line class="cls-27" x1="1933.22" y1="2085.36" x2="1912.24" y2="2075.05"/><line class="cls-28" x1="1933.22" y1="2085.36" x2="1912.24" y2="2075.05"/><line class="cls-27" x1="1813.87" y1="2034.92" x2="1771.5" y2="2018.85"/><line class="cls-28" x1="1813.87" y1="2034.92" x2="1771.5" y2="2018.85"/><path class="cls-34" d="M2735,1436c12.7-22.86,7.62-64.79,6.35-124.49s5.08-179.12-6.35-217.23S2642.88,776,2639.07,767.11,2547,465.4,2562.22,412s73.68-222.31,66.06-304.88-67.33-235,8.89-320.14,141-58.43,180.39-143.55c7.62-26.67,61.61-145.45-.64-222.94-34.93-57.81-45.73-81.31-70.5-118.78"/><polygon class="cls-35" points="1867.77 3728.5 1792.5 3678.5 1748.5 3817.5 1711.5 3975.5 1859.5 4081.5 1957.5 4171.5 2086.5 4162.5 2165.5 4198.5 2414.5 4678.5 1838.5 4787.5 1656.5 4194.5 1587.5 4068.5 1544.5 3810.5 1576.5 3718.5 1623.5 3545.5 1584.5 3434.5 1446.5 3338.5 1067.5 3154.5 646.5 2930.5 417.5 2848.5 174.5 2702.5 0.5 2520.5 -72.5 2508.5 -72.5 2015.5 12.5 2085.5 208.5 2330.5 348.5 2603.5 482.5 2724.5 668.5 2786.5 865.5 2896.5 977.5 2940.5 1060.5 2994.5 1182.5 2994.5 1234.5 3009.5 1380.5 3161.5 1881.5 3502.5 2020.5 3724.5 2152.5 3874.5 2225.5 3869.5 2486.5 4271.5 2616.5 4448.5 2809.5 4676.5 2475.5 4696.5 2414.5 4678.5 2165.5 4198.5 2324.5 4244.5 2235.5 4049.5 2094.5 3950.5 2023.5 3926.5 1867.77 3728.5"/><polyline class="cls-23" points="1918.67 2053.72 1919.72 2071.05 1925.49 2091.58 1934.13 2115.09 1943.42 2132.97 1958.87 2153.58 1976.4 2173.77 1981.67 2178.81 2003.99 2199.06 2032.28 2226.53 2045.01 2238.98 2061.9 2257.64 2078.1 2277.66 2092.19 2299.57 2107.14 2326.05 2118.41 2352.68 2128.72 2382.68 2136.03 2415.06 2138.67 2452.15 2138.24 2481.91 2137.21 2503.76 2128.54 2535.05 2111.91 2582.08 2087.86 2627.41 2066.91 2664.54 2053.28 2687.99 2014.19 2748.37 2006.27 2760.72 1769.51 3154.75 1647.56 3407.55"/><path class="cls-23" d="M1648,3411l-69,71s-98-73-170-67-80,4-94-7-63-43-125-51-91-66-130-61-127,8-189-49-112-38-124-32c-10.47,5.23-57.44,15.79-75.92,13.1A13.07,13.07,0,0,1,665,3226c-10-8-161-148-186-148s-79-93-110-105-156-72-210-104S-30,2744-72,2734"/><path class="cls-23" d="M664,3234c10,15,21,25,58,24s70,22,76,33,54,61,54,111-21,114,8,149,90,74,89,91"/><path class="cls-23" d="M3439,3529c-23-43-97-128-98-166s17-159-15-216-115-156-128-206-194-545-194-545"/><path class="cls-22" d="M2139.07,767.7C2140,753,2150,703,2153,691s20-90,18-115-30-128-32-146-33-122-21-146,26-40,25-53-43-127-43-175"/><path class="cls-22" d="M1276,1226s-76,62-85,75-46,187-209,129c-97-43-153-103-179-103s-177-9-195-58-34-131,46-161,119-59,139-72,36-20,54-16,163,24,249,150"/><path class="cls-22" d="M593,1236c-77-11-120-30-108-82s9-92,6-100"/><path class="cls-22" d="M659,978c5,12,70,119,66,142s-50,71-42,92,30,63,30,63"/><path class="cls-22" d="M646,1182c7,6,37,17.77,37,17.77"/><path class="cls-22" d="M878.35,1026.65C875,1049,865,1143,890,1206"/><path class="cls-22" d="M878.83,1371.28C892,1358,927,1311,943,1307s51-30,62-16,13,60,27,63,50-12,50-12"/><path class="cls-22" d="M914.84,316.78C903,335,813,544,808,568s-22,74-17,94,13,65,2,93-31,63-31,63"/><path class="cls-22" d="M-72,408c83,44,105,87,150,90s99-7,115-6,70,6,82,3,41-39,90-42,165-13,186-21,36-15,36-30-2-79-47-76-135,44-184,39-133-36-155-39-46-45-51-120a72.79,72.79,0,0,0-1.8-12C132.48,126.9,27.07,92.12,11,77-6,61-27,32-27,32"/><path class="cls-22" d="M155,199c42,27,105,78,301,51,112-15,132-20,146-11s17,17,41,19,41-1,57,11,87,67,87,67"/><path class="cls-22" d="M858,252c-17,22-32,87-65,101s-199.21,64.42-211.61,62.71"/></g><g id="Layer_8" data-name="Layer 8"><path class="cls-29" d="M1515.51,1849h-.62a12.5,12.5,0,0,1,.6-25h.62a12.5,12.5,0,0,1-.6,25Z"/><path d="M1515.49,1826h.52a10.5,10.5,0,0,1-.5,21H1515a10.5,10.5,0,0,1,.5-21m0-4a14.5,14.5,0,0,0-.69,29l.71,0a14.5,14.5,0,0,0,.69-29l-.71,0Z"/></g></svg>